<svg width="357" height="83" viewBox="0 0 357 83" fill="none" xmlns="http://www.w3.org/2000/svg">
<path d="M306.546 55.9192L314.827 54.9758C315.386 60.7059 317.08 65.0907 319.911 68.1305C322.741 71.1702 326.881 72.6901 332.332 72.6901C336.559 72.6901 340.018 71.572 342.709 69.3359C345.434 67.0648 346.796 63.7805 346.796 59.483C346.796 57.5613 346.499 55.9017 345.905 54.5041C345.311 53.1065 344.49 51.9011 343.442 50.8879C342.394 49.8747 341.171 49.0361 339.774 48.3723C338.376 47.6735 336.891 47.0446 335.319 46.4855C334.166 46.0663 333.013 45.6819 331.86 45.3325C330.742 44.9482 329.571 44.5813 328.348 44.2319C326.008 43.5332 323.649 42.6946 321.273 41.7163C318.897 40.738 316.766 39.4452 314.879 37.838C312.993 36.2308 311.473 34.2043 310.32 31.7586C309.167 29.3128 308.59 26.2731 308.59 22.6394C308.59 19.425 309.114 16.4901 310.163 13.8347C311.211 11.1444 312.696 8.83836 314.617 6.91669C316.539 4.96009 318.827 3.47516 321.483 2.46192C324.138 1.41374 327.073 0.889648 330.288 0.889648C337.171 0.889648 342.691 2.89866 346.849 6.91669C351.042 10.8998 353.243 16.5774 353.452 23.9496L344.752 24.893C344.333 19.9665 343.005 16.2979 340.769 13.8871C338.568 11.4413 335.179 10.2185 330.602 10.2185C326.829 10.2185 323.684 11.1269 321.168 12.9437C318.653 14.7606 317.395 17.678 317.395 21.696C317.395 23.5478 317.727 25.1026 318.391 26.3605C319.09 27.6183 319.98 28.7014 321.064 29.6098C322.147 30.4833 323.37 31.217 324.732 31.811C326.13 32.37 327.545 32.8941 328.977 33.3833C330.06 33.7327 331.196 34.0995 332.384 34.4839C333.572 34.8332 334.777 35.1826 336 35.532C338.411 36.3356 340.787 37.2615 343.128 38.3097C345.504 39.323 347.618 40.6856 349.469 42.3976C351.356 44.1097 352.858 46.2584 353.976 48.8439C355.129 51.3945 355.706 54.6089 355.706 58.4872C355.706 61.8763 355.147 65.0034 354.029 67.8684C352.946 70.7335 351.373 73.1967 349.312 75.2581C347.286 77.3195 344.875 78.9617 342.08 80.1846C339.284 81.4074 336.175 82.0189 332.751 82.0189C324.82 82.0189 318.496 79.8002 313.779 75.3629C309.097 70.9256 306.686 64.4444 306.546 55.9192Z" fill="#979797"/>
<path d="M288.438 80.7086V2.14746H297.662V80.7086H288.438Z" fill="#979797"/>
<path d="M229.45 55.9192L237.731 54.9758C238.29 60.7059 239.985 65.0907 242.815 68.1305C245.645 71.1702 249.785 72.6901 255.236 72.6901C259.463 72.6901 262.922 71.572 265.613 69.3359C268.338 67.0648 269.701 63.7805 269.701 59.483C269.701 57.5613 269.404 55.9017 268.81 54.5041C268.216 53.1065 267.395 51.9011 266.346 50.8879C265.298 49.8747 264.075 49.0361 262.678 48.3723C261.28 47.6735 259.795 47.0446 258.223 46.4855C257.07 46.0663 255.917 45.6819 254.764 45.3325C253.646 44.9482 252.475 44.5813 251.253 44.2319C248.912 43.5332 246.553 42.6946 244.177 41.7163C241.802 40.738 239.67 39.4452 237.783 37.838C235.897 36.2308 234.377 34.2043 233.224 31.7586C232.071 29.3128 231.494 26.2731 231.494 22.6394C231.494 19.425 232.018 16.4901 233.067 13.8347C234.115 11.1444 235.6 8.83836 237.521 6.91669C239.443 4.96009 241.732 3.47516 244.387 2.46192C247.042 1.41374 249.977 0.889648 253.192 0.889648C260.075 0.889648 265.595 2.89866 269.753 6.91669C273.946 10.8998 276.147 16.5774 276.357 23.9496L267.657 24.893C267.237 19.9665 265.91 16.2979 263.674 13.8871C261.472 11.4413 258.083 10.2185 253.506 10.2185C249.733 10.2185 246.588 11.1269 244.073 12.9437C241.557 14.7606 240.299 17.678 240.299 21.696C240.299 23.5478 240.631 25.1026 241.295 26.3605C241.994 27.6183 242.885 28.7014 243.968 29.6098C245.051 30.4833 246.274 31.217 247.636 31.811C249.034 32.37 250.449 32.8941 251.882 33.3833C252.965 33.7327 254.1 34.0995 255.288 34.4839C256.476 34.8332 257.681 35.1826 258.904 35.532C261.315 36.3356 263.691 37.2615 266.032 38.3097C268.408 39.323 270.522 40.6856 272.373 42.3976C274.26 44.1097 275.763 46.2584 276.881 48.8439C278.034 51.3945 278.61 54.6089 278.61 58.4872C278.61 61.8763 278.051 65.0034 276.933 67.8684C275.85 70.7335 274.278 73.1967 272.216 75.2581C270.19 77.3195 267.779 78.9617 264.984 80.1846C262.189 81.4074 259.079 82.0189 255.655 82.0189C247.724 82.0189 241.4 79.8002 236.683 75.3629C232.001 70.9256 229.59 64.4444 229.45 55.9192Z" fill="#979797"/>
<path d="M181.783 80.7086V2.14746H226.855V11.1618H191.007V35.6369H222.033V44.6512H191.007V71.6943H228.218V80.7086H181.783Z" fill="#979797"/>
<path d="M121.905 80.7086V2.14746H131.077L161.945 60.5312V2.14746H170.96V80.7086H161.736L130.972 22.325V80.7086H121.905Z" fill="#979797"/>
<path d="M67.2675 80.7086V2.14746H112.339V11.1618H76.4914V35.6369H107.518V44.6512H76.4914V71.6943H113.702V80.7086H67.2675Z" fill="#979797"/>
<path d="M0.890259 41.8735C0.890259 37.0868 1.39688 32.2652 2.41012 27.4086C3.4583 22.5171 5.1878 18.1148 7.59862 14.2015C10.0444 10.2534 13.2239 7.05645 17.1371 4.61069C21.0852 2.13 25.9243 0.889648 31.6544 0.889648C35.5326 0.889648 38.9043 1.46615 41.7693 2.61915C44.6344 3.73721 47.0801 5.36189 49.1066 7.49319C51.168 9.58955 52.8626 12.1227 54.1903 15.0925C55.518 18.0623 56.5312 21.3292 57.23 24.893L49.0542 27.7231C48.4253 25.0677 47.6741 22.6569 46.8006 20.4906C45.9621 18.2895 44.8615 16.4027 43.4988 14.8305C42.1362 13.2582 40.494 12.0528 38.5724 11.2142C36.6857 10.3407 34.4146 9.90401 31.7592 9.90401C27.5665 9.90401 24.09 10.8474 21.3298 12.7341C18.5696 14.6208 16.3684 17.0666 14.7262 20.0714C13.0841 23.0762 11.9136 26.4478 11.2148 30.1863C10.551 33.9248 10.2191 37.6109 10.2191 41.2446C10.2191 44.8783 10.551 48.547 11.2148 52.2505C11.9136 55.9192 13.0841 59.2559 14.7262 62.2607C16.3684 65.2654 18.5871 67.7287 21.3822 69.6503C24.1774 71.5371 27.6888 72.4804 31.9164 72.4804C34.9212 72.4804 38.0133 71.7816 41.1928 70.3841C44.3723 68.9515 46.9578 67.1347 48.9494 64.9335V49.7349H31.0255V40.9302L58.1734 40.8254V70.3316H57.23L58.0685 69.4407V80.7086H49.0542V76.6731C46.5735 78.1755 43.9356 79.4334 41.1404 80.4466C38.3453 81.4948 35.4453 82.0189 32.4405 82.0189C26.7105 82.0189 21.8539 80.8309 17.8708 78.4551C13.9226 76.0442 10.6733 72.9521 8.12271 69.1786C5.57213 65.3703 3.72035 61.0727 2.56735 56.286C1.44929 51.4644 0.890259 46.6602 0.890259 41.8735Z" fill="#979797"/>
<path d="M314.814 54.0859C315.021 54.083 315.224 54.1528 315.387 54.2842C315.572 54.4342 315.69 54.6523 315.713 54.8896C316.26 60.4989 317.908 64.6738 320.562 67.5244C323.176 70.331 327.047 71.7997 332.331 71.7998V72.6904L331.824 72.6855C326.791 72.5965 322.91 71.1718 320.18 68.4111L319.91 68.1309C317.08 65.0911 315.386 60.7056 314.827 54.9756L306.546 55.9189C306.686 64.4441 309.096 70.926 313.778 75.3633C318.348 79.6619 324.426 81.8783 332.012 82.0127L332.751 82.0186C336.175 82.0185 339.284 81.4073 342.079 80.1846C344.874 78.9617 347.286 77.3192 349.312 75.2578C351.374 73.1965 352.946 70.733 354.029 67.8682C355.077 65.1822 355.634 62.2658 355.699 59.1191L355.706 58.4873C355.706 54.609 355.13 51.3943 353.977 48.8438C352.859 46.2584 351.356 44.1094 349.47 42.3975C347.618 40.6855 345.504 39.3228 343.128 38.3096C341.08 37.3924 339.004 36.5688 336.902 35.8389L336 35.5322C334.777 35.1828 333.572 34.8328 332.384 34.4834C331.196 34.0991 330.061 33.7322 328.978 33.3828C327.545 32.8937 326.13 32.3696 324.732 31.8105C323.37 31.2166 322.147 30.4829 321.063 29.6094C319.98 28.701 319.089 27.6181 318.391 26.3604C317.768 25.1812 317.437 23.7411 317.398 22.04L317.395 21.6963C317.395 17.6783 318.652 14.7602 321.168 12.9434C323.684 11.1266 326.828 10.2188 330.602 10.2188L331.446 10.2324C335.598 10.3757 338.706 11.5939 340.77 13.8867C343.006 16.2975 344.333 19.9664 344.752 24.8926L353.452 23.9492C353.242 16.5773 351.041 10.9 346.849 6.91699C342.691 2.89896 337.17 0.889648 330.287 0.889648C327.073 0.889695 324.138 1.41378 321.482 2.46191C318.827 3.47515 316.539 4.96047 314.617 6.91699C312.696 8.83862 311.21 11.1447 310.162 13.835C309.114 16.4903 308.59 19.4254 308.59 22.6396L308.597 23.3135C308.664 26.6506 309.238 29.4658 310.319 31.7588C311.472 34.2044 312.992 36.2307 314.879 37.8379C316.766 39.4451 318.898 40.7385 321.273 41.7168C323.649 42.695 326.008 43.5337 328.349 44.2324C329.571 44.5818 330.741 44.9487 331.859 45.333C333.012 45.6824 334.166 46.0661 335.318 46.4854C336.891 47.0444 338.376 47.6733 339.773 48.3721C341.171 49.0359 342.394 49.8745 343.442 50.8877C344.49 51.9009 345.311 53.1064 345.905 54.5039C346.499 55.9015 346.797 57.5617 346.797 59.4834L346.792 59.8828C346.71 63.9848 345.348 67.1358 342.708 69.3359L342.454 69.542C339.801 71.6406 336.427 72.6904 332.331 72.6904V71.7998C336.396 71.7998 339.641 70.7284 342.14 68.6514C344.618 66.5853 345.906 63.5775 345.906 59.4834C345.906 57.6508 345.622 56.1149 345.086 54.8525C344.537 53.56 343.782 52.4552 342.823 51.5283C341.849 50.5863 340.707 49.8017 339.392 49.1768C339.386 49.1742 339.381 49.1706 339.376 49.168C338.013 48.4864 336.561 47.8719 335.021 47.3242L335.015 47.3223C333.877 46.9084 332.739 46.5292 331.602 46.1846C331.591 46.1814 331.581 46.1784 331.57 46.1748C330.468 45.7959 329.312 45.4333 328.104 45.0879L328.094 45.085C325.723 44.3772 323.337 43.5281 320.935 42.5391C318.475 41.5264 316.262 40.1858 314.302 38.5156C312.31 36.8192 310.717 34.6873 309.515 32.1377C308.29 29.5399 307.7 26.3615 307.7 22.6396C307.7 19.3274 308.241 16.2796 309.335 13.5078C310.425 10.7116 311.975 8.30035 313.988 6.28711C316.002 4.23886 318.397 2.68603 321.165 1.62988C323.934 0.53826 326.979 4.6826e-05 330.287 0C337.354 0 343.113 2.06806 347.468 6.27637H347.467C351.87 10.4626 354.127 16.3882 354.342 23.9248C354.355 24.3886 354.009 24.7849 353.548 24.835L344.849 25.7783C344.61 25.8042 344.372 25.7324 344.187 25.5801C344.002 25.4278 343.886 25.2074 343.865 24.9688C343.455 20.1451 342.165 16.7003 340.117 14.4922L340.107 14.4824C338.133 12.2888 335.028 11.1084 330.602 11.1084C326.974 11.1085 324.023 11.9797 321.689 13.665C319.472 15.2667 318.285 17.8711 318.285 21.6963C318.285 23.4364 318.596 24.8334 319.169 25.9277L319.42 26.3574C320.024 27.3392 320.761 28.1946 321.634 28.9268C322.645 29.7402 323.791 30.4281 325.075 30.9893C326.45 31.5389 327.842 32.0547 329.251 32.5361L332.656 33.6357L336.245 34.6758L336.281 34.6875C338.72 35.5005 341.124 36.437 343.491 37.4971H343.49C345.949 38.5476 348.143 39.9614 350.066 41.7383H350.067C352.054 43.5412 353.625 45.7939 354.787 48.4775L355.009 48.9912C356.08 51.5995 356.596 54.7756 356.596 58.4873C356.596 61.9758 356.021 65.2142 354.858 68.1924L354.857 68.1914C353.733 71.1622 352.097 73.7289 349.946 75.8809L349.947 75.8818C347.837 78.0286 345.33 79.7342 342.437 81C339.516 82.2778 336.283 82.9092 332.751 82.9092C324.647 82.9092 318.086 80.6374 313.169 76.0117L313.166 76.0088C308.26 71.359 305.799 64.6178 305.656 55.9336C305.649 55.4756 305.99 55.0871 306.445 55.0352L314.727 54.0918L314.814 54.0859Z" fill="#979797"/>
<path d="M297.662 2.14746H288.438V80.709H297.662V2.14746ZM298.552 80.709C298.552 81.2003 298.153 81.5985 297.662 81.5986H288.438C287.946 81.5984 287.548 81.2003 287.548 80.709V2.14746C287.548 1.65599 287.946 1.258 288.438 1.25781H297.662C298.154 1.25795 298.552 1.65596 298.552 2.14746V80.709Z" fill="#979797"/>
<path d="M237.719 54.0859C237.926 54.0831 238.129 54.1528 238.291 54.2842C238.476 54.4342 238.594 54.6524 238.617 54.8896C239.164 60.4989 240.812 64.6738 243.466 67.5244C246.079 70.3313 249.951 71.7997 255.235 71.7998V72.6904L254.729 72.6855C249.695 72.5965 245.814 71.1717 243.084 68.4111L242.814 68.1309C239.984 65.0911 238.29 60.7056 237.731 54.9756L229.45 55.9189C229.59 64.4442 232.001 70.926 236.683 75.3633C241.252 79.6619 247.33 81.8783 254.916 82.0127L255.655 82.0186C259.079 82.0185 262.188 81.4073 264.983 80.1846C267.779 78.9617 270.189 77.3192 272.216 75.2578C274.277 73.1964 275.849 70.7332 276.933 67.8682C277.981 65.1821 278.538 62.2659 278.604 59.1191L278.61 58.4873C278.61 54.609 278.034 51.3943 276.881 48.8438C275.763 46.2583 274.26 44.1095 272.373 42.3975C270.521 40.6856 268.408 39.3227 266.032 38.3096C263.984 37.3924 261.909 36.5688 259.807 35.8389L258.904 35.5322C257.681 35.1828 256.476 34.8328 255.288 34.4834C254.1 34.0991 252.965 33.7322 251.882 33.3828C250.449 32.8937 249.034 32.3696 247.637 31.8105C246.274 31.2166 245.051 30.4829 243.968 29.6094C243.02 28.8146 242.22 27.8864 241.566 26.8242L241.295 26.3604C240.673 25.1812 240.342 23.7411 240.303 22.04L240.299 21.6963C240.299 17.6783 241.557 14.7602 244.072 12.9434C246.588 11.1266 249.733 10.2188 253.506 10.2188L254.351 10.2324C258.502 10.3757 261.61 11.5939 263.674 13.8867C265.91 16.2975 267.237 19.9664 267.656 24.8926L276.356 23.9492C276.147 16.5773 273.945 10.9 269.753 6.91699C265.595 2.89896 260.074 0.889648 253.191 0.889648C249.977 0.889684 247.042 1.41377 244.387 2.46191C241.731 3.47515 239.443 4.96045 237.521 6.91699C235.6 8.83864 234.115 11.1447 233.066 13.835C232.018 16.4903 231.494 19.4254 231.494 22.6396L231.501 23.3135C231.569 26.6506 232.143 29.4658 233.224 31.7588C234.377 34.2044 235.897 36.2307 237.783 37.8379C239.67 39.4451 241.802 40.7385 244.178 41.7168C246.553 42.695 248.912 43.5337 251.253 44.2324C252.476 44.5818 253.646 44.9487 254.764 45.333C255.917 45.6824 257.07 46.0661 258.223 46.4854C259.795 47.0444 261.28 47.6733 262.678 48.3721C264.075 49.0359 265.298 49.8745 266.347 50.8877C267.395 51.9009 268.216 53.1064 268.81 54.5039C269.404 55.9015 269.7 57.5617 269.7 59.4834L269.696 59.8828C269.614 63.9848 268.252 67.1358 265.612 69.3359L265.358 69.542C262.706 71.6407 259.331 72.6904 255.235 72.6904V71.7998C259.3 71.7998 262.545 70.7284 265.044 68.6514C267.523 66.5853 268.81 63.5774 268.811 59.4834C268.811 57.6508 268.527 56.1149 267.99 54.8525C267.441 53.5601 266.686 52.4552 265.728 51.5283C264.753 50.5863 263.611 49.8017 262.296 49.1768C262.29 49.1742 262.285 49.1706 262.279 49.168C260.916 48.4865 259.465 47.8719 257.925 47.3242L257.919 47.3223C256.781 46.9084 255.643 46.5292 254.506 46.1846C254.495 46.1814 254.485 46.1783 254.475 46.1748C253.372 45.7959 252.217 45.4333 251.008 45.0879L250.998 45.085C248.627 44.3772 246.241 43.5281 243.839 42.5391C241.38 41.5264 239.167 40.1858 237.206 38.5156C235.215 36.8192 233.621 34.6873 232.419 32.1377C231.194 29.5399 230.605 26.3615 230.604 22.6396C230.604 19.3274 231.144 16.2795 232.238 13.5078C233.328 10.7115 234.878 8.3004 236.892 6.28711C238.905 4.23862 241.301 2.6861 244.069 1.62988C246.839 0.538273 249.883 3.5223e-05 253.191 0C260.255 0 266.012 2.06664 270.366 6.27148L270.772 6.66895C274.912 10.8299 277.038 16.6208 277.246 23.9248C277.259 24.3886 276.913 24.7849 276.452 24.835L267.753 25.7783C267.515 25.8042 267.276 25.7324 267.091 25.5801C266.906 25.4278 266.79 25.2074 266.77 24.9688C266.359 20.145 265.069 16.7003 263.021 14.4922L263.012 14.4824C261.037 12.2888 257.933 11.1084 253.506 11.1084C249.879 11.1085 246.927 11.9798 244.594 13.665C242.376 15.2667 241.189 17.8711 241.189 21.6963C241.189 23.4364 241.5 24.8334 242.073 25.9277L242.324 26.3574C242.928 27.3392 243.665 28.1946 244.538 28.9268C245.549 29.7402 246.695 30.4281 247.979 30.9893C249.357 31.5399 250.751 32.0559 252.163 32.5381C253.243 32.8866 254.376 33.2525 255.561 33.6357C256.739 33.9823 257.935 34.3291 259.148 34.6758C259.161 34.6793 259.173 34.6835 259.186 34.6875C261.624 35.5005 264.028 36.437 266.396 37.4971H266.395C268.854 38.5476 271.047 39.9614 272.971 41.7383C274.958 43.5412 276.529 45.7939 277.691 48.4775L277.913 48.9912C278.984 51.5995 279.5 54.7756 279.5 58.4873C279.5 61.9758 278.925 65.2142 277.763 68.1924L277.762 68.1914C276.636 71.1648 274.999 73.7345 272.846 75.8877L272.845 75.8867C270.735 78.0309 268.232 79.7353 265.341 81C262.42 82.2777 259.187 82.9091 255.655 82.9092C247.551 82.9092 240.99 80.6373 236.073 76.0117L236.07 76.0088C231.164 71.359 228.703 64.6179 228.561 55.9336C228.553 55.4756 228.894 55.0871 229.35 55.0352L237.63 54.0918L237.719 54.0859Z" fill="#979797"/>
<path d="M228.218 71.6943H191.008V44.6514H222.033V35.6367H191.008V11.1621H226.855V2.14746H181.783V80.709H228.218V71.6943ZM227.745 11.1621C227.745 11.6535 227.347 12.0516 226.855 12.0518H191.897V34.7471H222.033C222.525 34.7471 222.924 35.1452 222.924 35.6367V44.6514C222.924 45.1429 222.525 45.541 222.033 45.541H191.897V70.8037H228.218C228.709 70.8037 229.107 71.2027 229.107 71.6943V80.709C229.107 81.2004 228.709 81.5986 228.218 81.5986H181.783C181.292 81.5986 180.894 81.2004 180.894 80.709V2.14746C180.894 1.65591 181.292 1.25788 181.783 1.25781H226.855C227.347 1.258 227.745 1.65599 227.745 2.14746V11.1621Z" fill="#979797"/>
<path d="M170.96 2.14746H161.945V60.5312L131.076 2.14746H121.905V80.709H130.972V22.3252L161.735 80.709H170.96V2.14746ZM171.85 80.709C171.849 81.2004 171.451 81.5986 170.96 81.5986H161.735C161.405 81.5985 161.102 81.416 160.948 81.124L131.862 25.9238V80.709C131.862 81.2004 131.463 81.5986 130.972 81.5986H121.905C121.414 81.5986 121.015 81.2004 121.015 80.709V2.14746C121.015 1.65587 121.414 1.25781 121.905 1.25781H131.076L131.198 1.26562C131.479 1.3044 131.728 1.47615 131.863 1.73145L161.056 56.9434V2.14746C161.056 1.65592 161.454 1.25789 161.945 1.25781H170.96C171.451 1.25789 171.85 1.65592 171.85 2.14746V80.709Z" fill="#979797"/>
<path d="M113.702 71.6943H76.4912V44.6514H107.518V35.6367H76.4912V11.1621H112.339V2.14746H67.2676V80.709H113.702V71.6943ZM113.229 11.1621C113.229 11.6536 112.83 12.0518 112.339 12.0518H77.3818V34.7471H107.518C108.009 34.7471 108.407 35.1452 108.407 35.6367V44.6514C108.407 45.1429 108.009 45.541 107.518 45.541H77.3818V70.8037H113.702C114.194 70.8039 114.592 71.2028 114.592 71.6943V80.709C114.592 81.2003 114.194 81.5985 113.702 81.5986H67.2676C66.7761 81.5986 66.3771 81.2004 66.377 80.709V2.14746C66.377 1.65587 66.776 1.25781 67.2676 1.25781H112.339C112.83 1.25781 113.229 1.65587 113.229 2.14746V11.1621Z" fill="#979797"/>
<path d="M30.1357 49.7354V40.9307C30.1357 40.4404 30.5322 40.0419 31.0225 40.04L58.1699 39.9355C58.4065 39.9346 58.6341 40.0274 58.8018 40.1943C58.9694 40.3613 59.0634 40.5886 59.0635 40.8252V70.332C59.0634 70.4829 59.0252 70.6246 58.959 70.749V80.709C58.9588 81.2004 58.5599 81.5986 58.0684 81.5986H49.0547C48.5632 81.5986 48.1642 81.2004 48.1641 80.709V78.2168C46.0337 79.4067 43.7971 80.4288 41.4521 81.2793C38.5565 82.3651 35.5511 82.9092 32.4404 82.9092C26.5876 82.9092 21.565 81.6951 17.415 79.2197L17.4072 79.2148C13.352 76.7386 10.0089 73.5576 7.38574 69.6768L7.38281 69.6738C4.76957 65.7718 2.87793 61.3754 1.70215 56.4941L1.7002 56.4873C0.567405 51.6021 3.69837e-05 46.7305 0 41.874C0 37.0241 0.5138 32.1408 1.53906 27.2266L1.54004 27.2217C2.60761 22.2399 4.37237 17.7411 6.84082 13.7344L6.8418 13.7324C9.35886 9.66923 12.6355 6.37393 16.665 3.85547C20.784 1.26796 25.796 1.95548e-05 31.6543 0C35.6183 0 39.1077 0.588183 42.1016 1.79297H42.1006C45.0735 2.95432 47.6244 4.64608 49.7412 6.86914L50.1387 7.2832C52.1021 9.37862 53.722 11.8642 55.0029 14.7295C56.361 17.7674 57.3933 21.0994 58.1035 24.7217C58.1889 25.1571 57.9407 25.5892 57.5215 25.7344L49.3457 28.5645C49.108 28.6467 48.8465 28.624 48.626 28.5029C48.4056 28.3818 48.2466 28.1734 48.1885 27.9287C47.5682 25.3098 46.8298 22.9418 45.9756 20.8232C45.9735 20.818 45.9708 20.8129 45.9688 20.8076C45.1624 18.691 44.1122 16.897 42.8262 15.4131C41.5512 13.9421 40.0176 12.8161 38.2168 12.0303C38.2108 12.0276 38.2042 12.0252 38.1982 12.0225C36.4565 11.2161 34.3196 10.7939 31.7588 10.7939C27.6998 10.794 24.4105 11.7063 21.832 13.4688C19.1907 15.2742 17.0843 17.6135 15.5078 20.498C13.9153 23.4119 12.7733 26.6933 12.0898 30.3496C11.4356 34.0364 11.1094 37.6684 11.1094 41.2451C11.1094 44.821 11.4352 48.4338 12.0889 52.084C12.7719 55.6697 13.914 58.9176 15.5078 61.834C17.0823 64.7149 19.2042 67.0711 21.8799 68.9121C24.4944 70.6769 27.8209 71.5898 31.916 71.5898V72.4805L31.1318 72.4697C27.2525 72.3591 24.0022 71.4191 21.3818 69.6504C18.7614 67.8488 16.6481 65.5709 15.041 62.8174L14.7266 62.2607C13.0845 59.2561 11.9136 55.9194 11.2148 52.251C10.5925 48.779 10.2616 45.3373 10.2227 41.9268L10.2188 41.2451C10.2188 37.6115 10.551 33.925 11.2148 30.1865C11.87 26.6816 12.9395 23.4987 14.4238 20.6387L14.7266 20.0713C16.2661 17.2543 18.2971 14.929 20.8193 13.0947L21.3301 12.7344C24.0902 10.8477 27.5663 9.90437 31.7588 9.9043L32.2529 9.90918C34.6971 9.96039 36.8036 10.3951 38.5723 11.2139C40.4939 12.0524 42.1364 13.2579 43.499 14.8301C44.8616 16.4023 45.9623 18.2892 46.8008 20.4902C47.6742 22.6564 48.4258 25.0674 49.0547 27.7227L57.2305 24.8926C56.5754 21.5518 55.6433 18.4722 54.4355 15.6533L54.1904 15.0928C52.8627 12.1229 51.1679 9.58953 49.1064 7.49316C47.08 5.36195 44.6345 3.73718 41.7695 2.61914C38.9045 1.46614 35.5326 0.889648 31.6543 0.889648C25.9243 0.889668 21.0848 2.12968 17.1367 4.61035C13.2237 7.05604 10.0443 10.2532 7.59863 14.2012C5.18789 18.1143 3.45835 22.5169 2.41016 27.4082C1.39691 32.2648 0.890625 37.0873 0.890625 41.874L0.896484 42.7715C0.962011 47.261 1.51922 51.7659 2.56738 56.2861C3.72038 61.0728 5.57249 65.3703 8.12305 69.1787C10.6736 72.9521 13.923 76.0443 17.8711 78.4551C21.8541 80.8309 26.7105 82.0185 32.4404 82.0186C35.4452 82.0186 38.3455 81.4945 41.1406 80.4463C43.9357 79.4331 46.5741 78.1752 49.0547 76.6729V80.709H58.0684V70.332H58.1738V40.8252L31.0254 40.9307V49.7354H48.9492V64.9336C46.9578 67.1346 44.3725 68.9513 41.1934 70.3838C38.0139 71.7814 34.9208 72.4805 31.916 72.4805V71.5898C34.7774 71.5898 37.7458 70.9257 40.8271 69.5723C43.7918 68.2365 46.1942 66.5684 48.0596 64.582V50.625H31.0254C30.534 50.6249 30.136 50.2267 30.1357 49.7354Z" fill="#979797"/>
</svg>
