<svg width="342" height="83" viewBox="0 0 342 83" fill="none" xmlns="http://www.w3.org/2000/svg">
<path d="M291.97 55.5965L300.203 54.6586C300.758 60.3556 302.443 64.7152 305.257 67.7373C308.071 70.7595 312.187 72.2706 317.606 72.2706C321.809 72.2706 325.248 71.159 327.923 68.9358C330.633 66.6778 331.988 63.4125 331.988 59.1398C331.988 57.2292 331.692 55.5792 331.102 54.1897C330.511 52.8002 329.695 51.6017 328.653 50.5943C327.611 49.5869 326.395 48.7532 325.005 48.0932C323.616 47.3985 322.139 46.7732 320.576 46.2174C319.43 45.8005 318.284 45.4184 317.137 45.071C316.026 44.6889 314.862 44.3242 313.646 43.9768C311.319 43.2821 308.974 42.4484 306.612 41.4757C304.25 40.5031 302.131 39.2178 300.255 37.6198C298.379 36.0219 296.868 34.0071 295.721 31.5755C294.575 29.1439 294.002 26.1217 294.002 22.509C294.002 19.3131 294.523 16.3952 295.565 13.7551C296.607 11.0803 298.084 8.78763 299.994 6.87706C301.905 4.93176 304.18 3.45541 306.82 2.44802C309.46 1.40589 312.378 0.884827 315.574 0.884827C322.417 0.884827 327.906 2.88224 332.04 6.87706C336.208 10.8371 338.397 16.482 338.605 23.8116L329.955 24.7496C329.539 19.8516 328.219 16.2041 325.995 13.8072C323.807 11.3756 320.437 10.1598 315.887 10.1598C312.135 10.1598 309.009 11.0629 306.508 12.8693C304.006 14.6757 302.756 17.5762 302.756 21.5711C302.756 23.4122 303.086 24.958 303.746 26.2085C304.441 27.4591 305.326 28.536 306.403 29.4391C307.48 30.3076 308.696 31.0371 310.051 31.6276C311.44 32.1834 312.847 32.7045 314.271 33.1908C315.348 33.5382 316.477 33.9029 317.658 34.285C318.839 34.6324 320.038 34.9798 321.254 35.3272C323.651 36.1261 326.013 37.0467 328.34 38.0888C330.702 39.0962 332.804 40.4509 334.645 42.1531C336.521 43.8552 338.015 45.9916 339.126 48.5622C340.272 51.098 340.846 54.2939 340.846 58.1498C340.846 61.5193 340.29 64.6283 339.178 67.4768C338.101 70.3253 336.538 72.7743 334.489 74.8238C332.474 76.8733 330.077 78.506 327.298 79.7218C324.519 80.9376 321.427 81.5455 318.023 81.5455C310.138 81.5455 303.85 79.3397 299.161 74.928C294.506 70.5163 292.109 64.0725 291.97 55.5965Z" fill="#A7A7A7"/>
<path d="M276.1 80.2429V2.13538H285.271V80.2429H276.1Z" fill="#A7A7A7"/>
<path d="M219.588 55.5965L227.821 54.6586C228.376 60.3556 230.061 64.7152 232.875 67.7373C235.689 70.7595 239.805 72.2706 245.224 72.2706C249.427 72.2706 252.866 71.159 255.541 68.9358C258.251 66.6778 259.605 63.4125 259.605 59.1398C259.605 57.2292 259.31 55.5792 258.72 54.1897C258.129 52.8002 257.313 51.6017 256.271 50.5943C255.229 49.5869 254.013 48.7532 252.623 48.0932C251.234 47.3985 249.757 46.7732 248.194 46.2174C247.048 45.8005 245.901 45.4184 244.755 45.071C243.644 44.6889 242.48 44.3242 241.264 43.9768C238.937 43.2821 236.592 42.4484 234.23 41.4757C231.868 40.5031 229.749 39.2178 227.873 37.6198C225.997 36.0219 224.486 34.0071 223.339 31.5755C222.193 29.1439 221.62 26.1217 221.62 22.509C221.62 19.3131 222.141 16.3952 223.183 13.7551C224.225 11.0803 225.702 8.78763 227.612 6.87706C229.523 4.93176 231.798 3.45541 234.438 2.44802C237.078 1.40589 239.996 0.884827 243.192 0.884827C250.035 0.884827 255.524 2.88224 259.658 6.87706C263.826 10.8371 266.015 16.482 266.223 23.8116L257.573 24.7496C257.156 19.8516 255.836 16.2041 253.613 13.8072C251.425 11.3756 248.055 10.1598 243.505 10.1598C239.753 10.1598 236.627 11.0629 234.125 12.8693C231.624 14.6757 230.374 17.5762 230.374 21.5711C230.374 23.4122 230.704 24.958 231.364 26.2085C232.059 27.4591 232.944 28.536 234.021 29.4391C235.098 30.3076 236.314 31.0371 237.669 31.6276C239.058 32.1834 240.465 32.7045 241.889 33.1908C242.966 33.5382 244.095 33.9029 245.276 34.285C246.457 34.6324 247.656 34.9798 248.872 35.3272C251.268 36.1261 253.631 37.0467 255.958 38.0888C258.32 39.0962 260.422 40.4509 262.263 42.1531C264.139 43.8552 265.632 45.9916 266.744 48.5622C267.89 51.098 268.464 54.2939 268.464 58.1498C268.464 61.5193 267.908 64.6283 266.796 67.4768C265.719 70.3253 264.156 72.7743 262.107 74.8238C260.092 76.8733 257.695 78.506 254.916 79.7218C252.137 80.9376 249.045 81.5455 245.641 81.5455C237.756 81.5455 231.468 79.3397 226.778 74.928C222.124 70.5163 219.727 64.0725 219.588 55.5965Z" fill="#A7A7A7"/>
<path d="M174.33 80.2429V2.13538H219.142V11.0977H183.501V35.4314H214.348V44.3937H183.501V71.2806H220.497V80.2429H174.33Z" fill="#A7A7A7"/>
<path d="M116.932 80.2429V2.13538H126.051L156.741 60.1819V2.13538H165.703V80.2429H156.533L125.946 22.1963V80.2429H116.932Z" fill="#A7A7A7"/>
<path d="M64.7443 80.2429V2.13538H109.556V11.0977H73.915V35.4314H104.762V44.3937H73.915V71.2806H110.911V80.2429H64.7443Z" fill="#A7A7A7"/>
<path d="M0.884766 41.632C0.884766 36.873 1.38846 32.0792 2.39585 27.2507C3.43798 22.3874 5.15749 18.0105 7.55438 14.1199C9.98602 10.1945 13.1471 7.01601 17.0377 4.58438C20.9631 2.11801 25.7743 0.884827 31.4712 0.884827C35.3271 0.884827 38.6793 1.458 41.5278 2.60434C44.3762 3.71594 46.8079 5.33124 48.8226 7.45023C50.8722 9.53449 52.5569 12.053 53.877 15.0057C55.197 17.9584 56.2044 21.2063 56.8991 24.7496L48.7705 27.5633C48.1453 24.9232 47.3984 22.5264 46.53 20.3726C45.6963 18.1842 44.602 16.3083 43.2473 14.7451C41.8925 13.1819 40.2598 11.9835 38.3493 11.1498C36.4734 10.2813 34.2155 9.84713 31.5754 9.84713C27.4069 9.84713 23.9505 10.785 21.2063 12.6609C18.462 14.5367 16.2735 16.9683 14.6409 19.9558C13.0082 22.9432 11.8445 26.2954 11.1497 30.0123C10.4897 33.7292 10.1597 37.394 10.1597 41.0068C10.1597 44.6195 10.4897 48.2669 11.1497 51.9491C11.8445 55.5965 13.0082 58.914 14.6409 61.9014C16.2735 64.8888 18.4794 67.3379 21.2584 69.2484C24.0374 71.1243 27.5285 72.0622 31.7318 72.0622C34.7192 72.0622 37.7935 71.3674 40.9546 69.9779C44.1157 68.5537 46.6863 66.7473 48.6663 64.5588V49.448H30.8459V40.6941L57.8371 40.5899V69.9258H56.8991L57.7328 69.04V80.2429H48.7705V76.2307C46.3042 77.7244 43.6815 78.9749 40.9025 79.9823C38.1235 81.0245 35.2403 81.5455 32.2528 81.5455C26.5559 81.5455 21.7273 80.3644 17.7672 78.0023C13.8419 75.6054 10.6113 72.5311 8.07545 68.7795C5.5396 64.9931 3.69851 60.7203 2.55217 55.9613C1.44057 51.1675 0.884766 46.3911 0.884766 41.632Z" fill="#A7A7A7"/>
<path d="M300.19 53.7734C300.396 53.7706 300.597 53.8402 300.759 53.9707C300.943 54.1198 301.06 54.3364 301.083 54.5723C301.627 60.1492 303.266 64.3005 305.904 67.1348C308.503 69.9255 312.352 71.3857 317.606 71.3857V72.2705L317.102 72.2666C311.931 72.175 307.983 70.665 305.257 67.7373C302.443 64.7151 300.759 60.3551 300.203 54.6582L291.97 55.5967C292.109 64.0724 294.506 70.5161 299.16 74.9277C303.703 79.2015 309.746 81.4054 317.288 81.5391L318.023 81.5459C321.428 81.5459 324.519 80.9374 327.298 79.7217C330.077 78.5059 332.474 76.8736 334.488 74.8242C336.538 72.7747 338.102 70.325 339.179 67.4766C340.221 64.8062 340.774 61.9067 340.839 58.7783L340.846 58.1494C340.846 54.2938 340.272 51.0982 339.126 48.5625C338.014 45.9919 336.52 43.8555 334.645 42.1533C332.803 40.4512 330.702 39.0962 328.34 38.0889C326.303 37.177 324.24 36.3585 322.15 35.6328L321.254 35.3271C320.038 34.9798 318.839 34.6325 317.658 34.2852C316.477 33.903 315.348 33.5378 314.271 33.1904C312.847 32.7041 311.44 32.1837 310.051 31.6279C308.696 31.0374 307.48 30.3078 306.403 29.4395C305.327 28.5364 304.441 27.4594 303.746 26.209C303.127 25.0367 302.798 23.6044 302.76 21.9131L302.756 21.5713C302.756 17.7015 303.929 14.8582 306.276 13.042L306.508 12.8691C309.009 11.0629 312.135 10.1602 315.887 10.1602L316.727 10.1738C320.854 10.3164 323.944 11.528 325.995 13.8076C328.218 16.2045 329.538 19.8521 329.955 24.75L338.605 23.8115C338.397 16.482 336.208 10.837 332.04 6.87695C328.036 3.00702 322.759 1.01161 316.212 0.890625L315.574 0.884766C312.378 0.884766 309.46 1.40613 306.82 2.44824L306.329 2.64258C303.897 3.64195 301.785 5.05332 299.994 6.87695C298.084 8.78745 296.608 11.0802 295.565 13.7549L295.376 14.2529C294.46 16.7606 294.002 19.5126 294.002 22.5088C294.002 26.1214 294.575 29.1436 295.722 31.5752C296.868 34.0068 298.379 36.0222 300.255 37.6201C302.131 39.2179 304.249 40.503 306.611 41.4756C308.973 42.4482 311.319 43.2818 313.646 43.9766C314.862 44.3239 316.026 44.6892 317.138 45.0713C318.284 45.4186 319.43 45.801 320.576 46.2178C322.139 46.7735 323.616 47.3981 325.005 48.0928C326.394 48.7528 327.61 49.5873 328.652 50.5947C329.694 51.6021 330.511 52.8001 331.102 54.1895C331.692 55.5789 331.987 57.2291 331.987 59.1396C331.987 63.4124 330.632 66.6776 327.923 68.9355C325.248 71.1586 321.81 72.2705 317.606 72.2705V71.3857C321.648 71.3857 324.873 70.3199 327.357 68.2549C329.822 66.2006 331.103 63.2103 331.103 59.1396C331.103 57.3178 330.82 55.7912 330.287 54.5361C329.741 53.2511 328.991 52.152 328.038 51.2305C327.069 50.2939 325.934 49.5139 324.626 48.8926C324.621 48.89 324.615 48.8874 324.609 48.8848C323.254 48.2072 321.811 47.5953 320.279 47.0508L320.273 47.0488C319.142 46.6375 318.011 46.2605 316.881 45.918C316.87 45.9148 316.86 45.9117 316.85 45.9082C315.754 45.5316 314.605 45.1715 313.403 44.8281L313.393 44.8252C311.035 44.1216 308.663 43.2773 306.274 42.2939C303.83 41.2872 301.63 39.9543 299.681 38.2939C297.701 36.6073 296.116 34.488 294.921 31.9531C293.703 29.3702 293.117 26.2094 293.117 22.5088C293.117 19.2171 293.653 16.1883 294.74 13.4336C295.824 10.6519 297.366 8.2535 299.368 6.25098C301.245 4.34184 303.456 2.86647 305.992 1.82422L306.505 1.62109C309.258 0.535851 312.285 0 315.574 0C322.597 3.42327e-05 328.321 2.05488 332.649 6.23535L333.054 6.63086C337.169 10.7677 339.283 16.5247 339.489 23.7861C339.502 24.2474 339.159 24.6417 338.7 24.6914L330.051 25.6289C329.814 25.6546 329.576 25.5841 329.393 25.4326C329.209 25.2812 329.093 25.0615 329.073 24.8242C328.665 20.0287 327.383 16.6045 325.347 14.4092L325.338 14.3994C323.375 12.2183 320.288 11.0449 315.887 11.0449C312.28 11.0449 309.346 11.9112 307.025 13.5869C304.821 15.1793 303.641 17.7683 303.641 21.5713C303.641 23.3013 303.95 24.6903 304.52 25.7783L304.769 26.2051C305.366 27.1771 306.096 28.0241 306.959 28.75L307.345 29.0498C308.254 29.732 309.267 30.3183 310.386 30.8076C311.757 31.3561 313.146 31.8704 314.552 32.3506C315.619 32.6949 316.738 33.0571 317.907 33.4355H317.908L321.497 34.4766L321.533 34.4873C323.953 35.2939 326.338 36.2232 328.687 37.2744C331.14 38.3206 333.329 39.7302 335.246 41.5029H335.245C337.218 43.2945 338.778 45.5318 339.933 48.1973L340.152 48.709C341.217 51.3021 341.73 54.4594 341.73 58.1494C341.73 61.6178 341.158 64.8378 340.003 67.7988L340.002 67.7979C338.884 70.7516 337.257 73.3037 335.119 75.4434C333.021 77.5778 330.529 79.2737 327.652 80.5322C324.749 81.8025 321.535 82.4306 318.023 82.4307C309.966 82.4307 303.443 80.1714 298.554 75.5723L298.552 75.5703C293.674 70.9474 291.227 64.2455 291.085 55.6113C291.077 55.1558 291.417 54.7684 291.87 54.7168L300.103 53.7793L300.19 53.7734Z" fill="#A7A7A7"/>
<path d="M285.271 2.13574H276.101V80.2432H285.271V2.13574ZM286.156 80.2432C286.156 80.7316 285.76 81.1277 285.271 81.1279H276.101C275.612 81.1279 275.215 80.7318 275.215 80.2432V2.13574C275.215 1.64698 275.612 1.25 276.101 1.25H285.271C285.76 1.25024 286.156 1.64713 286.156 2.13574V80.2432Z" fill="#A7A7A7"/>
<path d="M227.809 53.7734C228.014 53.7706 228.216 53.8402 228.377 53.9707C228.561 54.1198 228.678 54.3364 228.701 54.5723C229.245 60.1492 230.884 64.3005 233.522 67.1348C236.121 69.9255 239.971 71.3857 245.225 71.3857V72.2705L244.72 72.2666C239.716 72.178 235.857 70.7612 233.143 68.0166L232.875 67.7373C230.061 64.7151 228.376 60.3552 227.82 54.6582L219.588 55.5967C219.727 64.0725 222.124 70.5161 226.778 74.9277C231.321 79.2015 237.364 81.4055 244.906 81.5391L245.641 81.5459C248.832 81.5459 251.75 81.0111 254.392 79.9424L254.916 79.7217C257.695 78.5059 260.092 76.8736 262.106 74.8242C264.156 72.7747 265.719 70.325 266.796 67.4766C267.838 64.8061 268.392 61.9068 268.457 58.7783L268.464 58.1494C268.464 54.2938 267.89 51.0982 266.744 48.5625C265.633 45.9919 264.139 43.8555 262.263 42.1533C260.422 40.4512 258.32 39.0963 255.958 38.0889C253.921 37.177 251.858 36.3585 249.769 35.6328L248.872 35.3271C247.656 34.9798 246.457 34.6325 245.276 34.2852C244.095 33.9031 242.966 33.5378 241.89 33.1904C240.466 32.7041 239.058 32.1837 237.669 31.6279C236.314 31.0374 235.098 30.3078 234.021 29.4395C232.945 28.5364 232.059 27.4593 231.364 26.209C230.746 25.0367 230.417 23.6044 230.378 21.9131L230.374 21.5713C230.374 17.5766 231.624 14.6755 234.125 12.8691C236.626 11.0628 239.753 10.1602 243.505 10.1602L244.344 10.1738C248.472 10.3163 251.562 11.5279 253.613 13.8076C255.836 16.2045 257.156 19.8521 257.573 24.75L266.223 23.8115C266.014 16.482 263.826 10.837 259.657 6.87695C255.653 3.00704 250.377 1.01147 243.829 0.890625L243.192 0.884766C239.997 0.884766 237.078 1.40618 234.438 2.44824L233.947 2.64258C231.515 3.64194 229.403 5.05333 227.612 6.87695C225.702 8.78743 224.226 11.0802 223.184 13.7549L222.994 14.2529C222.078 16.7606 221.62 19.5126 221.62 22.5088L221.627 23.1797C221.694 26.4972 222.265 29.2956 223.34 31.5752C224.486 34.0068 225.997 36.0222 227.873 37.6201C229.749 39.2179 231.868 40.503 234.229 41.4756C236.592 42.4482 238.936 43.2818 241.264 43.9766C242.479 44.3239 243.643 44.6892 244.755 45.0713C245.901 45.4187 247.048 45.8009 248.194 46.2178C249.757 46.7735 251.234 47.3981 252.623 48.0928C254.013 48.7528 255.228 49.5873 256.271 50.5947C257.313 51.6021 258.129 52.8001 258.72 54.1895C259.31 55.5789 259.605 57.2291 259.605 59.1396C259.605 63.4124 258.251 66.6776 255.541 68.9355C252.866 71.1587 249.428 72.2704 245.225 72.2705V71.3857C249.266 71.3857 252.491 70.3199 254.976 68.2549C257.44 66.2006 258.721 63.2102 258.721 59.1396C258.721 57.3178 258.439 55.7912 257.905 54.5361C257.359 53.2511 256.609 52.152 255.655 51.2305C254.686 50.294 253.551 49.5138 252.243 48.8926C252.238 48.8901 252.233 48.8874 252.228 48.8848C250.872 48.2072 249.429 47.5953 247.897 47.0508L247.892 47.0488C246.76 46.6375 245.629 46.2605 244.499 45.918C244.489 45.9148 244.478 45.9117 244.468 45.9082C243.372 45.5315 242.222 45.1715 241.021 44.8281L241.011 44.8252C238.654 44.1215 236.281 43.2773 233.893 42.2939C231.448 41.2872 229.248 39.9543 227.299 38.2939C225.319 36.6073 223.734 34.4879 222.539 31.9531C221.321 29.3702 220.735 26.2094 220.735 22.5088C220.735 19.2171 221.272 16.1883 222.358 13.4336C223.442 10.652 224.984 8.25348 226.986 6.25098C228.863 4.34184 231.074 2.86645 233.61 1.82422L234.123 1.62109C236.876 0.5359 239.903 0 243.192 0C250.215 7.59068e-05 255.939 2.05485 260.268 6.23535L260.672 6.63086C264.787 10.7677 266.901 16.5247 267.107 23.7861C267.121 24.2474 266.777 24.6417 266.318 24.6914L257.669 25.6289C257.432 25.6546 257.195 25.5841 257.011 25.4326C256.827 25.2812 256.712 25.0616 256.691 24.8242C256.283 20.0288 255.001 16.6045 252.965 14.4092L252.955 14.3994C250.992 12.2184 247.906 11.045 243.505 11.0449C239.898 11.0449 236.964 11.9112 234.644 13.5869C232.439 15.1793 231.259 17.7683 231.259 21.5713C231.259 23.3013 231.568 24.6903 232.138 25.7783L232.387 26.2051C232.985 27.1771 233.714 28.0241 234.577 28.75L234.963 29.0498C235.874 29.7332 236.889 30.3207 238.01 30.8105C239.379 31.3581 240.766 31.8711 242.17 32.3506C243.237 32.6949 244.356 33.0571 245.525 33.4355L249.151 34.4873C251.571 35.2939 253.956 36.2232 256.305 37.2744C258.758 38.3206 260.946 39.7304 262.863 41.5029C264.836 43.2946 266.396 45.5316 267.551 48.1973L267.771 48.709C268.835 51.302 269.349 54.4595 269.349 58.1494C269.349 61.6178 268.777 64.8378 267.621 67.7988L267.62 67.7979C266.502 70.7518 264.875 73.3037 262.736 75.4434L262.737 75.4443C260.639 77.5786 258.147 79.2738 255.271 80.5322C252.367 81.8026 249.152 82.4307 245.641 82.4307C237.583 82.4306 231.061 80.1713 226.172 75.5723L226.17 75.5703C221.292 70.9474 218.845 64.2455 218.703 55.6113C218.696 55.1559 219.035 54.7685 219.487 54.7168L227.721 53.7793L227.809 53.7734Z" fill="#A7A7A7"/>
<path d="M220.496 71.2803H183.501V44.3936H214.348V35.4316H183.501V11.0977H219.142V2.13574H174.33V80.2432H220.496V71.2803ZM220.026 11.0977C220.026 11.5864 219.63 11.9824 219.142 11.9824H184.386V34.5469H214.348C214.836 34.5469 215.233 34.9429 215.233 35.4316V44.3936C215.233 44.8823 214.836 45.2783 214.348 45.2783H184.386V70.3955H220.496C220.985 70.3955 221.382 70.7917 221.382 71.2803V80.2432C221.382 80.7318 220.985 81.1279 220.496 81.1279H174.33C173.842 81.1278 173.445 80.7317 173.445 80.2432V2.13574C173.445 1.64705 173.841 1.25011 174.33 1.25H219.142C219.63 1.25 220.026 1.64698 220.026 2.13574V11.0977Z" fill="#A7A7A7"/>
<path d="M165.703 2.13574H156.741V60.1816L126.051 2.13574H116.932V80.2432H125.946V22.1963L156.533 80.2432H165.703V2.13574ZM166.589 80.2432C166.589 80.7318 166.192 81.1279 165.703 81.1279H156.533C156.205 81.1279 155.903 80.9458 155.75 80.6553L126.831 25.7744V80.2432C126.831 80.7318 126.435 81.1279 125.946 81.1279H116.932C116.443 81.1278 116.047 80.7317 116.047 80.2432V2.13574C116.047 1.64708 116.443 1.25017 116.932 1.25H126.051L126.172 1.25879C126.451 1.29742 126.699 1.46793 126.833 1.72168L155.856 56.6152V2.13574C155.856 1.64699 156.252 1.25001 156.741 1.25H165.703C166.192 1.25 166.589 1.64698 166.589 2.13574V80.2432Z" fill="#A7A7A7"/>
<path d="M110.91 71.2803H73.915V44.3936H104.762V35.4316H73.915V11.0977H109.556V2.13574H64.7441V80.2432H110.91V71.2803ZM110.44 11.0977C110.44 11.5864 110.044 11.9824 109.556 11.9824H74.7998V34.5469H104.762C105.25 34.5469 105.646 34.9429 105.646 35.4316V44.3936C105.646 44.8823 105.25 45.2783 104.762 45.2783H74.7998V70.3955H110.91C111.399 70.3955 111.796 70.7917 111.796 71.2803V80.2432C111.796 80.7318 111.399 81.1279 110.91 81.1279H64.7441C64.2555 81.1279 63.8595 80.7318 63.8594 80.2432V2.13574C63.8594 1.64702 64.2554 1.25007 64.7441 1.25H109.556C110.044 1.25 110.44 1.64698 110.44 2.13574V11.0977Z" fill="#A7A7A7"/>
<path d="M29.9609 49.4482V40.6943C29.9609 40.2069 30.3554 39.8115 30.8428 39.8096L57.834 39.7051C58.0692 39.7043 58.2953 39.7969 58.4619 39.9629C58.6285 40.1289 58.7217 40.3546 58.7217 40.5898V69.9258C58.7217 70.0759 58.6841 70.217 58.6182 70.3408V80.2432C58.618 80.7318 58.2211 81.1279 57.7324 81.1279H48.7705C48.2819 81.1279 47.8859 80.7318 47.8857 80.2432V77.7646C45.7649 78.9492 43.5388 79.9681 41.2041 80.8145L41.2031 80.8135C38.3271 81.8907 35.3423 82.4306 32.2529 82.4307C26.4337 82.4307 21.4395 81.2239 17.3135 78.7627L17.3057 78.7578C13.2739 76.2959 9.94975 73.1337 7.3418 69.2754L7.33984 69.2715C4.7418 65.3921 2.86038 61.0218 1.69141 56.1689L1.69043 56.1611C0.564144 51.304 0 46.4604 0 41.6318C1.46143e-05 36.8101 0.510026 31.9559 1.5293 27.0703L1.53027 27.0654C2.59167 22.1123 4.34651 17.639 6.80078 13.6553L6.80176 13.6543C9.14788 9.86698 12.158 6.75041 15.8262 4.3125L16.5684 3.83398C20.6636 1.26131 25.647 0 31.4717 0C35.4127 4.68768e-05 38.8819 0.585351 41.8584 1.7832H41.8574C44.813 2.93783 47.3487 4.61999 49.4531 6.83008H49.4541C51.5848 8.99703 53.3262 11.606 54.6846 14.6445C56.0349 17.6649 57.0614 20.9777 57.7676 24.5791C57.8525 25.012 57.6054 25.4416 57.1885 25.5859L49.0596 28.3994C48.8233 28.4811 48.5638 28.4592 48.3447 28.3389C48.1255 28.2184 47.9669 28.0109 47.9092 27.7676C47.2925 25.1638 46.5583 22.8094 45.709 20.7031C45.7069 20.698 45.7051 20.6927 45.7031 20.6875C44.9015 18.5832 43.8567 16.8005 42.5781 15.3252C41.3104 13.8625 39.7858 12.7423 37.9951 11.9609C37.9892 11.9584 37.9834 11.9558 37.9775 11.9531C36.2458 11.1514 34.1212 10.7324 31.5752 10.7324C27.5397 10.7325 24.2696 11.6394 21.7061 13.3916C19.0799 15.1867 16.9844 17.5119 15.417 20.3799C13.835 23.2747 12.7002 26.5342 12.0205 30.166L12.0215 30.167C11.3701 33.8351 11.0449 37.4483 11.0449 41.0068C11.0449 44.5621 11.3686 48.1541 12.0186 51.7832C12.6976 55.348 13.8325 58.5772 15.417 61.4766C16.9824 64.341 19.0926 66.6842 21.7529 68.5146C24.3524 70.2693 27.6599 71.1767 31.7314 71.1768V72.0625L30.9521 72.0508C27.3522 71.9482 24.2976 71.1276 21.7881 69.5889L21.2588 69.248C18.4798 67.3375 16.2733 64.8888 14.6406 61.9014C13.008 58.914 11.8442 55.5966 11.1494 51.9492C10.5307 48.4972 10.2018 45.0756 10.1631 41.6846L10.1602 41.0068C10.1602 37.3943 10.4894 33.7295 11.1494 30.0127C11.8007 26.5282 12.8643 23.3639 14.3398 20.5205L14.6406 19.9561C16.1712 17.1554 18.1907 14.8432 20.6982 13.0195L21.2061 12.6611C23.9503 10.7853 27.4068 9.84671 31.5752 9.84668C34.2153 9.84668 36.4738 10.281 38.3496 11.1494C40.2601 11.9831 41.8924 13.182 43.2471 14.7451C44.6018 16.3083 45.6966 18.1846 46.5303 20.373C47.3986 22.5267 48.1453 24.9236 48.7705 27.5635L56.8994 24.75C56.2481 21.4282 55.322 18.3653 54.1211 15.5625L53.877 15.0059C52.5569 12.0532 50.8718 9.53445 48.8223 7.4502C46.8075 5.33131 44.3757 3.71606 41.5273 2.60449C38.857 1.52989 35.7441 0.958785 32.1885 0.891602L31.4717 0.884766C25.7749 0.884766 20.9634 2.1178 17.0381 4.58398L16.3164 5.04883C12.7545 7.41599 9.83431 10.4402 7.55469 14.1201C5.15781 18.0107 3.43763 22.3877 2.39551 27.251L2.21289 28.1553C1.32746 32.678 0.884779 37.1702 0.884766 41.6318L0.891602 42.5244C0.956722 46.988 1.50968 51.4669 2.55176 55.9609C3.69807 60.7199 5.53943 64.993 8.0752 68.7793C10.611 72.531 13.8422 75.6051 17.7676 78.002C21.48 80.2164 25.9555 81.3928 31.1943 81.5312L32.2529 81.5459C35.2403 81.5459 38.1234 81.0245 40.9023 79.9824C43.6814 78.975 46.3041 77.7242 48.7705 76.2305V80.2432H57.7324V69.9258H57.8369V40.5898L30.8457 40.6943V49.4482H48.666V64.5586C46.686 66.7471 44.1152 68.5533 40.9541 69.9775C37.7931 71.367 34.7188 72.0625 31.7314 72.0625V71.1768C34.5763 71.1768 37.5273 70.5165 40.5908 69.1709C43.5381 67.843 45.9267 66.1846 47.7812 64.21V50.333H30.8457C30.3571 50.3329 29.9611 49.9368 29.9609 49.4482Z" fill="#A7A7A7"/>
</svg>
