<svg width="761" height="83" viewBox="0 0 761 83" fill="none" xmlns="http://www.w3.org/2000/svg">
<path d="M0.884766 41.7362C0.884766 36.9771 1.38846 32.1833 2.39585 27.3548C3.43798 22.4916 5.15749 18.1146 7.55438 14.224C9.98602 10.2987 13.1471 7.12016 17.0377 4.68853C20.9631 2.22216 25.7743 0.988978 31.4712 0.988978C35.3271 0.988978 38.6793 1.56215 41.5278 2.70849C44.3762 3.82009 46.8079 5.43539 48.8227 7.55438C50.8722 9.63864 52.5569 12.1571 53.877 15.1098C55.197 18.0625 56.2044 21.3105 56.8991 24.8537L48.7705 27.6675C48.1453 25.0274 47.3984 22.6305 46.53 20.4768C45.6963 18.2883 44.602 16.4125 43.2473 14.8493C41.8925 13.2861 40.2598 12.0876 38.3493 11.2539C36.4734 10.3855 34.2155 9.95128 31.5754 9.95128C27.4069 9.95128 23.9505 10.8892 21.2063 12.765C18.462 14.6409 16.2735 17.0725 14.6409 20.0599C13.0082 23.0474 11.8445 26.3995 11.1497 30.1165C10.4897 33.8334 10.1597 37.4982 10.1597 41.1109C10.1597 44.7236 10.4897 48.3711 11.1497 52.0532C11.8445 55.7007 13.0082 59.0181 14.6409 62.0056C16.2735 64.993 18.4794 67.442 21.2584 69.3526C24.0374 71.2284 27.5285 72.1663 31.7318 72.1663C34.7192 72.1663 37.7935 71.4716 40.9546 70.0821C44.1157 68.6578 46.6863 66.8515 48.6663 64.663V49.5521H30.8459V40.7983L57.8371 40.694V70.03H56.8991L57.7328 69.1441V80.347H48.7705V76.3348C46.3042 77.8285 43.6815 79.0791 40.9025 80.0865C38.1235 81.1286 35.2402 81.6497 32.2528 81.6497C26.5558 81.6497 21.7273 80.4686 17.7672 78.1064C13.8419 75.7096 10.6113 72.6353 8.07545 68.8836C5.5396 65.0972 3.69851 60.8245 2.55217 56.0654C1.44057 51.2716 0.884766 46.4952 0.884766 41.7362Z" fill="#A7A7A7"/>
<path d="M64.7443 80.347V2.23953H109.556V11.2018H73.915V35.5355H104.762V44.4978H73.915V71.3847H110.911V80.347H64.7443Z" fill="#A7A7A7"/>
<path d="M116.932 80.347V2.23953H126.051L156.741 60.2861V2.23953H165.704V80.347H156.533L125.946 22.3005V80.347H116.932Z" fill="#A7A7A7"/>
<path d="M174.33 80.347V2.23953H219.142V11.2018H183.501V35.5355H214.348V44.4978H183.501V71.3847H220.497V80.347H174.33Z" fill="#A7A7A7"/>
<path d="M219.588 55.7007L227.821 54.7628C228.376 60.4597 230.061 64.8193 232.875 67.8415C235.689 70.8637 239.805 72.3747 245.224 72.3747C249.427 72.3747 252.866 71.2631 255.541 69.0399C258.251 66.782 259.606 63.5167 259.606 59.2439C259.606 57.3334 259.31 55.6833 258.72 54.2938C258.129 52.9043 257.313 51.7059 256.271 50.6985C255.229 49.6911 254.013 48.8574 252.623 48.1974C251.234 47.5026 249.757 46.8773 248.194 46.3215C247.048 45.9047 245.902 45.5226 244.755 45.1752C243.644 44.7931 242.48 44.4283 241.264 44.081C238.937 43.3862 236.592 42.5525 234.23 41.5799C231.868 40.6072 229.749 39.3219 227.873 37.724C225.997 36.1261 224.486 34.1113 223.339 31.6796C222.193 29.248 221.62 26.2258 221.62 22.6131C221.62 19.4173 222.141 16.4993 223.183 13.8593C224.225 11.1845 225.702 8.89178 227.612 6.98121C229.523 5.03591 231.798 3.55956 234.438 2.55217C237.078 1.51004 239.996 0.988978 243.192 0.988978C250.035 0.988978 255.524 2.98639 259.658 6.98121C263.826 10.9413 266.015 16.5862 266.223 23.9158L257.573 24.8537C257.157 19.9557 255.836 16.3083 253.613 13.9114C251.425 11.4797 248.055 10.2639 243.505 10.2639C239.753 10.2639 236.627 11.1671 234.125 12.9734C231.624 14.7798 230.374 17.6804 230.374 21.6752C230.374 23.5163 230.704 25.0621 231.364 26.3127C232.059 27.5632 232.944 28.6401 234.021 29.5433C235.098 30.4117 236.314 31.1412 237.669 31.7318C239.058 32.2876 240.465 32.8086 241.889 33.2949C242.966 33.6423 244.095 34.0071 245.276 34.3892C246.457 34.7366 247.656 35.0839 248.872 35.4313C251.268 36.2303 253.631 37.1508 255.958 38.1929C258.32 39.2003 260.422 40.5551 262.263 42.2572C264.139 43.9594 265.633 46.0957 266.744 48.6663C267.89 51.2022 268.464 54.398 268.464 58.2539C268.464 61.6235 267.908 64.7325 266.796 67.5809C265.719 70.4294 264.156 72.8784 262.107 74.928C260.092 76.9775 257.695 78.6101 254.916 79.826C252.137 81.0418 249.045 81.6497 245.641 81.6497C237.756 81.6497 231.468 79.4438 226.778 75.0322C222.124 70.6205 219.727 64.1767 219.588 55.7007Z" fill="#A7A7A7"/>
<path d="M276.1 80.347V2.23953H285.271V80.347H276.1Z" fill="#A7A7A7"/>
<path d="M291.97 55.7007L300.203 54.7628C300.758 60.4597 302.443 64.8193 305.257 67.8415C308.071 70.8637 312.187 72.3747 317.606 72.3747C321.809 72.3747 325.248 71.2631 327.923 69.0399C330.633 66.782 331.988 63.5167 331.988 59.2439C331.988 57.3334 331.692 55.6833 331.102 54.2938C330.511 52.9043 329.695 51.7059 328.653 50.6985C327.611 49.6911 326.395 48.8574 325.005 48.1974C323.616 47.5026 322.139 46.8773 320.576 46.3215C319.43 45.9047 318.284 45.5226 317.137 45.1752C316.026 44.7931 314.862 44.4283 313.646 44.081C311.319 43.3862 308.974 42.5525 306.612 41.5799C304.25 40.6072 302.131 39.3219 300.255 37.724C298.379 36.1261 296.868 34.1113 295.722 31.6796C294.575 29.248 294.002 26.2258 294.002 22.6131C294.002 19.4173 294.523 16.4993 295.565 13.8593C296.607 11.1845 298.084 8.89178 299.994 6.98121C301.905 5.03591 304.18 3.55956 306.82 2.55217C309.46 1.51004 312.378 0.988978 315.574 0.988978C322.417 0.988978 327.906 2.98639 332.04 6.98121C336.208 10.9413 338.397 16.5862 338.605 23.9158L329.955 24.8537C329.539 19.9557 328.219 16.3083 325.995 13.9114C323.807 11.4797 320.437 10.2639 315.887 10.2639C312.135 10.2639 309.009 11.1671 306.508 12.9734C304.006 14.7798 302.756 17.6804 302.756 21.6752C302.756 23.5163 303.086 25.0621 303.746 26.3127C304.441 27.5632 305.326 28.6401 306.403 29.5433C307.48 30.4117 308.696 31.1412 310.051 31.7318C311.44 32.2876 312.847 32.8086 314.271 33.2949C315.348 33.6423 316.477 34.0071 317.658 34.3892C318.839 34.7366 320.038 35.0839 321.254 35.4313C323.651 36.2303 326.013 37.1508 328.34 38.1929C330.702 39.2003 332.804 40.5551 334.645 42.2572C336.521 43.9594 338.015 46.0957 339.126 48.6663C340.273 51.2022 340.846 54.398 340.846 58.2539C340.846 61.6235 340.29 64.7325 339.178 67.5809C338.101 70.4294 336.538 72.8784 334.489 74.928C332.474 76.9775 330.077 78.6101 327.298 79.826C324.519 81.0418 321.427 81.6497 318.023 81.6497C310.138 81.6497 303.85 79.4438 299.161 75.0322C294.506 70.6205 292.109 64.1767 291.97 55.7007Z" fill="#A7A7A7"/>
<path d="M367.582 80.347V2.23953H394.782C396.901 2.23953 398.881 2.36111 400.722 2.60428C402.598 2.8127 404.352 3.24692 405.985 3.90694C407.618 4.56695 409.111 5.55697 410.466 6.877C411.821 8.16229 413.037 9.86443 414.113 11.9834C415.885 15.5961 416.771 19.5041 416.771 23.7074C416.771 29.2654 415.381 33.8334 412.602 37.4114C409.823 40.9893 405.829 43.3862 400.618 44.602C403.119 46.4779 405.169 48.5447 406.766 50.8027C408.364 53.0606 409.841 55.5444 411.196 58.2539L422.398 80.347H410.987C410.64 79.7217 410.049 78.5754 409.215 76.908C408.417 75.2406 407.444 73.33 406.298 71.1763C405.151 68.9878 403.901 66.6604 402.546 64.194C401.191 61.7277 399.854 59.4176 398.534 57.2639C397.248 55.1102 396.033 53.1996 394.886 51.5322C393.775 49.83 392.819 48.6316 392.02 47.9368C390.805 46.9294 389.623 46.2868 388.477 46.0089C387.331 45.731 385.907 45.5921 384.204 45.5921H376.753V80.347H367.582ZM376.857 36.734H393.375C397.856 36.734 401.365 35.7266 403.901 33.7118C406.436 31.6623 407.704 28.2927 407.704 23.6032C407.704 19.5389 406.645 16.3951 404.526 14.1719C402.442 11.914 399.367 10.785 395.303 10.785H376.857V36.734Z" fill="#A7A7A7"/>
<path d="M429.201 80.347V2.23953H474.013V11.2018H438.372V35.5355H469.219V44.4978H438.372V71.3847H475.368V80.347H429.201Z" fill="#A7A7A7"/>
<path d="M473.573 40.7983C473.573 36.4561 474.025 31.9575 474.928 27.3027C475.866 22.6131 477.446 18.323 479.67 14.4324C481.928 10.5071 484.863 7.29385 488.476 4.79275C492.088 2.2569 496.639 0.988978 502.127 0.988978C505.497 0.988978 508.484 1.54478 511.09 2.65638C513.73 3.73325 516.057 5.2617 518.072 7.24175C520.122 9.18705 521.824 11.5145 523.178 14.224C524.568 16.9335 525.697 19.8862 526.565 23.0821L517.499 25.5311C516.943 23.2384 516.248 21.1368 515.415 19.2262C514.616 17.3156 513.591 15.6656 512.34 14.2761C511.09 12.8866 509.631 11.8097 507.963 11.0455C506.296 10.2465 504.316 9.84707 502.023 9.84707C498.133 9.84707 494.937 10.8197 492.436 12.765C489.935 14.7103 487.972 17.2114 486.548 20.2683C485.123 23.3253 484.151 26.6774 483.63 30.3249C483.109 33.9723 482.848 37.4287 482.848 40.694C482.848 43.9594 483.091 47.4679 483.578 51.2195C484.064 54.9365 485.002 58.3929 486.391 61.5887C487.781 64.7846 489.691 67.442 492.123 69.561C494.589 71.6453 497.82 72.6874 501.815 72.6874C504.455 72.6874 506.765 72.1316 508.745 71.02C510.76 69.9084 512.462 68.4147 513.851 66.5388C515.241 64.663 516.353 62.5266 517.186 60.1297C518.055 57.6981 518.732 55.1275 519.218 52.418L528.076 55.2838C527.382 58.7576 526.374 62.0924 525.054 65.2883C523.734 68.4494 522.032 71.2458 519.948 73.6774C517.898 76.0743 515.415 78.0022 512.497 79.4612C509.579 80.9202 506.192 81.6497 502.336 81.6497C496.639 81.6497 491.949 80.3818 488.267 77.8459C484.585 75.2753 481.632 71.9926 479.409 67.9978C477.221 64.003 475.692 59.6087 474.824 54.8149C473.99 50.0211 473.573 45.3489 473.573 40.7983Z" fill="#A7A7A7"/>
<path d="M530.45 42.2572C530.45 39.2698 530.641 36.1782 531.024 32.9823C531.44 29.7864 532.1 26.6601 533.004 23.6032C533.942 20.5462 535.175 17.6457 536.703 14.9014C538.232 12.1571 540.073 9.74285 542.226 7.6586C544.415 5.5396 546.968 3.88957 549.886 2.70849C552.804 1.49267 556.156 0.884766 559.943 0.884766C565.327 0.884766 569.895 2.18743 573.647 4.79275C577.433 7.36333 580.49 10.6287 582.817 14.5887C585.145 18.5141 586.812 22.891 587.82 27.7196C588.862 32.5133 589.383 37.0813 589.383 41.4235C589.383 44.3415 589.14 47.3637 588.653 50.4901C588.202 53.6164 587.49 56.6733 586.517 59.6608C585.579 62.6482 584.328 65.462 582.765 68.102C581.202 70.7421 579.326 73.0695 577.138 75.0843C574.984 77.0991 572.466 78.697 569.582 79.8781C566.699 81.0591 563.451 81.6497 559.838 81.6497C554.558 81.6497 550.06 80.4165 546.343 77.9501C542.661 75.449 539.639 72.2705 537.276 68.4147C534.949 64.5588 533.229 60.3208 532.118 55.7007C531.006 51.0806 530.45 46.5994 530.45 42.2572ZM539.777 42.5699C539.777 45.87 540.107 49.2916 540.767 52.8348C541.462 56.3781 542.591 59.6434 544.154 62.6308C545.718 65.6183 547.767 68.0846 550.303 70.03C552.874 71.9405 556.052 72.8958 559.838 72.8958C563.729 72.8958 566.977 71.8884 569.582 69.8736C572.188 67.8241 574.272 65.2535 575.835 62.1619C577.398 59.0702 578.475 55.7007 579.066 52.0532C579.691 48.3711 580.004 44.8626 580.004 41.5278C580.004 38.2624 579.674 34.7887 579.014 31.1065C578.388 27.3896 577.311 23.9505 575.783 20.7894C574.255 17.5935 572.205 14.9709 569.634 12.9213C567.099 10.8718 563.903 9.84707 560.047 9.84707C557.059 9.84707 554.385 10.5244 552.022 11.8792C549.66 13.1992 547.559 15.0056 545.718 17.2983C544.432 18.8615 543.39 20.6852 542.591 22.7695C541.827 24.819 541.236 26.9901 540.82 29.2828C540.403 31.5407 540.125 33.8334 539.986 36.1608C539.847 38.4535 539.777 40.5898 539.777 42.5699Z" fill="#A7A7A7"/>
<path d="M594.779 80.347V2.23953H621.978C624.097 2.23953 626.077 2.36111 627.919 2.60428C629.794 2.8127 631.549 3.24692 633.181 3.90694C634.814 4.56695 636.308 5.55697 637.662 6.877C639.017 8.16229 640.233 9.86443 641.31 11.9834C643.081 15.5961 643.967 19.5041 643.967 23.7074C643.967 29.2654 642.578 33.8334 639.799 37.4114C637.02 40.9893 633.025 43.3862 627.814 44.602C630.315 46.4779 632.365 48.5447 633.963 50.8027C635.561 53.0606 637.037 55.5444 638.392 58.2539L649.595 80.347H638.184C637.836 79.7217 637.246 78.5754 636.412 76.908C635.613 75.2406 634.64 73.33 633.494 71.1763C632.348 68.9878 631.097 66.6604 629.742 64.194C628.387 61.7277 627.05 59.4176 625.73 57.2639C624.445 55.1102 623.229 53.1996 622.083 51.5322C620.971 49.83 620.016 48.6316 619.217 47.9368C618.001 46.9294 616.82 46.2868 615.674 46.0089C614.527 45.731 613.103 45.5921 611.401 45.5921H603.95V80.347H594.779ZM604.054 36.734H620.572C625.053 36.734 628.561 35.7266 631.097 33.7118C633.633 31.6623 634.901 28.2927 634.901 23.6032C634.901 19.5389 633.841 16.3951 631.722 14.1719C629.638 11.914 626.564 10.785 622.5 10.785H604.054V36.734Z" fill="#A7A7A7"/>
<path d="M656.398 80.347V2.23953H677.709C679.411 2.23953 681.218 2.29164 683.128 2.39585C685.074 2.46533 686.897 2.77796 688.6 3.33377C692.455 4.44537 695.599 6.42541 698.031 9.2739C700.497 12.1224 702.425 15.3356 703.815 18.9136C705.204 22.4568 706.142 26.1911 706.628 30.1165C707.115 34.0418 707.358 37.6371 707.358 40.9025C707.358 43.5773 707.184 46.5126 706.837 49.7085C706.489 52.8696 705.882 55.996 705.013 59.0876C704.179 62.1793 703.033 65.1319 701.574 67.9457C700.115 70.7594 698.239 73.1216 695.947 75.0322C693.515 77.0817 690.788 78.4886 687.766 79.2528C684.778 79.9823 681.791 80.347 678.804 80.347H656.398ZM665.673 71.2805H677.814C679.377 71.2805 680.94 71.1937 682.503 71.02C684.066 70.8463 685.56 70.4815 686.984 69.9257C689.416 68.8489 691.361 67.1988 692.82 64.9756C694.279 62.7177 695.408 60.2166 696.207 57.4723C697.041 54.728 697.579 51.8969 697.822 48.979C698.066 46.0263 698.187 43.2994 698.187 40.7983C698.187 38.4361 698.066 35.8655 697.822 33.0865C697.579 30.3075 697.076 27.6327 696.311 25.0621C695.582 22.4568 694.522 20.0773 693.133 17.9236C691.743 15.7351 689.954 14.0677 687.766 12.9213C686.342 12.2266 684.692 11.7924 682.816 11.6187C680.975 11.4103 679.238 11.306 677.605 11.306H665.673V71.2805Z" fill="#A7A7A7"/>
<path d="M710.93 55.7007L719.163 54.7628C719.719 60.4597 721.404 64.8193 724.217 67.8415C727.031 70.8637 731.148 72.3747 736.567 72.3747C740.77 72.3747 744.209 71.2631 746.884 69.0399C749.593 66.782 750.948 63.5167 750.948 59.2439C750.948 57.3334 750.653 55.6833 750.062 54.2938C749.472 52.9043 748.655 51.7059 747.613 50.6985C746.571 49.6911 745.355 48.8574 743.966 48.1974C742.576 47.5026 741.1 46.8773 739.537 46.3215C738.39 45.9047 737.244 45.5226 736.098 45.1752C734.986 44.7931 733.822 44.4283 732.607 44.081C730.279 43.3862 727.934 42.5525 725.572 41.5799C723.21 40.6072 721.091 39.3219 719.215 37.724C717.339 36.1261 715.828 34.1113 714.682 31.6796C713.536 29.248 712.962 26.2258 712.962 22.6131C712.962 19.4173 713.484 16.4993 714.526 13.8593C715.568 11.1845 717.044 8.89178 718.955 6.98121C720.865 5.03591 723.141 3.55956 725.781 2.55217C728.421 1.51004 731.339 0.988978 734.534 0.988978C741.378 0.988978 746.866 2.98639 751 6.98121C755.169 10.9413 757.357 16.5862 757.566 23.9158L748.916 24.8537C748.499 19.9557 747.179 16.3083 744.956 13.9114C742.767 11.4797 739.398 10.2639 734.847 10.2639C731.096 10.2639 727.969 11.1671 725.468 12.9734C722.967 14.7798 721.716 17.6804 721.716 21.6752C721.716 23.5163 722.046 25.0621 722.706 26.3127C723.401 27.5632 724.287 28.6401 725.364 29.5433C726.441 30.4117 727.656 31.1412 729.011 31.7318C730.401 32.2876 731.808 32.8086 733.232 33.2949C734.309 33.6423 735.438 34.0071 736.619 34.3892C737.8 34.7366 738.998 35.0839 740.214 35.4313C742.611 36.2303 744.973 37.1508 747.301 38.1929C749.663 39.2003 751.764 40.5551 753.605 42.2572C755.481 43.9594 756.975 46.0957 758.087 48.6663C759.233 51.2022 759.806 54.398 759.806 58.2539C759.806 61.6235 759.25 64.7325 758.139 67.5809C757.062 70.4294 755.499 72.8784 753.449 74.928C751.434 76.9775 749.037 78.6101 746.258 79.826C743.479 81.0418 740.388 81.6497 736.984 81.6497C729.098 81.6497 722.811 79.4438 718.121 75.0322C713.466 70.6205 711.069 64.1767 710.93 55.7007Z" fill="#A7A7A7"/>
<path d="M227.809 53.8779C228.014 53.8751 228.216 53.9438 228.377 54.0742C228.561 54.2234 228.678 54.4407 228.701 54.6768C229.245 60.2536 230.884 64.4041 233.522 67.2383C236.121 70.0291 239.971 71.4902 245.225 71.4902V72.375L244.72 72.3701C239.716 72.2815 235.857 70.8649 233.143 68.1201L232.875 67.8418C230.061 64.8196 228.376 60.4597 227.82 54.7627L219.588 55.7012C219.727 64.1769 222.124 70.6206 226.778 75.0322C231.468 79.4438 237.755 81.6493 245.641 81.6494C248.832 81.6494 251.75 81.1155 254.392 80.0469L254.916 79.8262C257.695 78.6104 260.092 76.9773 262.106 74.9277C264.156 72.8783 265.719 70.4294 266.796 67.5811C267.838 64.9107 268.392 62.0112 268.457 58.8828L268.464 58.2539C268.464 54.398 267.89 51.2019 266.744 48.666C265.633 46.0955 264.138 43.9589 262.263 42.2568C260.537 40.6611 258.581 39.3708 256.397 38.3857L255.958 38.1934C253.921 37.2815 251.858 36.462 249.769 35.7363L248.872 35.4316C247.656 35.0843 246.457 34.737 245.276 34.3896C244.095 34.0076 242.966 33.6423 241.89 33.2949C240.821 32.9302 239.763 32.5464 238.714 32.1426L237.669 31.7314C236.484 31.2147 235.404 30.5918 234.432 29.8623L234.021 29.543C233.079 28.7527 232.283 27.8296 231.634 26.7734L231.364 26.3125C230.745 25.14 230.417 23.7082 230.378 22.0166L230.374 21.6748C230.374 17.8052 231.548 14.9626 233.895 13.1465L234.126 12.9736C236.627 11.1674 239.753 10.2637 243.505 10.2637L244.344 10.2783C248.472 10.4208 251.562 11.6315 253.613 13.9111L252.955 14.5029C250.992 12.3222 247.906 11.1485 243.505 11.1484C239.898 11.1484 236.964 12.0148 234.644 13.6904C232.439 15.2827 231.259 17.8719 231.259 21.6748C231.259 23.4051 231.568 24.7947 232.138 25.8828L232.387 26.3096C232.985 27.2816 233.714 28.1286 234.577 28.8545L234.963 29.1543C235.874 29.8376 236.889 30.4252 238.01 30.915C239.381 31.4633 240.77 31.977 242.176 32.457H242.175C243.245 32.8021 244.366 33.1637 245.538 33.543C246.713 33.8885 247.905 34.2345 249.114 34.5801C249.127 34.5836 249.139 34.5878 249.151 34.5918C251.571 35.3985 253.956 36.3275 256.306 37.3789L256.762 37.5791C259.028 38.6012 261.06 39.9425 262.856 41.6016H262.857C264.833 43.394 266.395 45.6336 267.551 48.3018L267.771 48.8125C268.835 51.4057 269.349 54.5635 269.349 58.2539C269.349 61.7221 268.776 64.9415 267.621 67.9023L267.62 67.9014C266.502 70.8556 264.875 73.408 262.736 75.5479L262.737 75.5488C260.639 77.683 258.147 79.3783 255.271 80.6367C252.367 81.9071 249.152 82.5342 245.641 82.5342C237.583 82.5341 231.061 80.2758 226.172 75.6768L226.17 75.6748C221.292 71.0518 218.845 64.3491 218.703 55.7148C218.696 55.2596 219.035 54.873 219.487 54.8213L227.721 53.8838L227.809 53.8779ZM300.19 53.8779C300.396 53.8751 300.597 53.9439 300.759 54.0742C300.943 54.2233 301.06 54.4407 301.083 54.6768C301.627 60.2535 303.266 64.4041 305.904 67.2383C308.503 70.0291 312.352 71.4902 317.606 71.4902V72.375L317.102 72.3701C312.098 72.2815 308.239 70.8649 305.524 68.1201L305.257 67.8418C302.443 64.8196 300.759 60.4597 300.203 54.7627L291.97 55.7012C292.109 64.1768 294.506 70.6206 299.16 75.0322C303.703 79.306 309.746 81.5099 317.288 81.6436L318.023 81.6494C321.215 81.6494 324.132 81.1155 326.773 80.0469L327.298 79.8262C330.077 78.6104 332.474 76.9772 334.488 74.9277C336.538 72.8782 338.102 70.4295 339.179 67.5811C340.221 64.9107 340.774 62.0111 340.839 58.8828L340.846 58.2539C340.846 54.398 340.272 51.2019 339.126 48.666C338.014 46.0956 336.52 43.9589 334.645 42.2568C332.919 40.6613 330.964 39.3708 328.78 38.3857L328.34 38.1934C326.303 37.2814 324.24 36.4621 322.15 35.7363L321.254 35.4316C320.038 35.0843 318.839 34.737 317.658 34.3896C316.477 34.0075 315.348 33.6423 314.271 33.2949C312.847 32.8086 311.44 32.2872 310.051 31.7314C308.696 31.1409 307.48 30.4114 306.403 29.543C305.461 28.7527 304.665 27.8296 304.016 26.7734L303.746 26.3125C303.086 25.062 302.756 23.5159 302.756 21.6748C302.756 17.8053 303.93 14.9626 306.276 13.1465L306.508 12.9736C309.009 11.1673 312.135 10.2637 315.887 10.2637L316.727 10.2783C320.854 10.4209 323.944 11.6317 325.995 13.9111L325.338 14.5029C323.375 12.3219 320.288 11.1484 315.887 11.1484C312.28 11.1484 309.346 12.0148 307.025 13.6904C304.821 15.2827 303.641 17.8719 303.641 21.6748C303.641 23.405 303.95 24.7947 304.52 25.8828L304.769 26.3096C305.366 27.2816 306.096 28.1286 306.959 28.8545L307.345 29.1543C308.254 29.8364 309.267 30.4228 310.386 30.9121C311.759 31.4613 313.15 31.9763 314.558 32.457H314.557C315.626 32.8021 316.748 33.1637 317.92 33.543L321.497 34.5801L321.533 34.5918C323.958 35.4001 326.348 36.3308 328.702 37.3848H328.701C331.149 38.4304 333.332 39.8381 335.246 41.6074H335.245C337.218 43.399 338.778 45.6362 339.933 48.3018L340.152 48.8125C341.217 51.4058 341.73 54.5635 341.73 58.2539C341.73 61.7222 341.158 64.9415 340.003 67.9023L340.002 67.9014C338.884 70.8554 337.257 73.4081 335.119 75.5479C333.021 77.6823 330.529 79.3782 327.652 80.6367C324.749 81.907 321.535 82.5341 318.023 82.5342C309.966 82.5342 303.443 80.2759 298.554 75.6768L298.552 75.6748C293.674 71.0518 291.227 64.3491 291.085 55.7148C291.078 55.2595 291.418 54.8728 291.87 54.8213L300.103 53.8838L300.19 53.8779ZM589.383 41.4238C589.383 37.0817 588.861 32.5135 587.819 27.7197C586.875 23.193 585.351 19.063 583.246 15.3301L582.817 14.5889C580.635 10.8763 577.812 7.77455 574.348 5.2832L573.646 4.79297C569.895 2.18765 565.327 0.884766 559.942 0.884766C556.156 0.884792 552.804 1.49222 549.886 2.70801C546.968 3.88904 544.415 5.53937 542.227 7.6582L541.826 8.05371C539.844 10.0463 538.136 12.3287 536.703 14.9014C535.175 17.6456 533.942 20.5466 533.004 23.6035L532.677 24.7529C531.94 27.4429 531.388 30.1861 531.023 32.9824L530.146 32.8682C530.569 29.6267 531.239 26.4545 532.155 23.3525L532.157 23.3438C533.113 20.2285 534.37 17.2702 535.93 14.4707C537.498 11.6544 539.391 9.16985 541.61 7.02246C543.883 4.82167 546.534 3.11002 549.554 1.8877C552.597 0.621304 556.065 2.61099e-05 559.942 0C565.474 0 570.227 1.33991 574.151 4.06543H574.15C578.042 6.70866 581.186 10.0686 583.578 14.1377L584.017 14.8955C586.168 18.7113 587.722 22.9252 588.684 27.5312C589.737 32.379 590.268 37.0109 590.268 41.4238C590.268 44.3875 590.02 47.4515 589.528 50.6152L589.529 50.6162C589.071 53.789 588.347 56.8921 587.36 59.9248L587.361 59.9258C586.403 62.9768 585.125 65.8529 583.526 68.5527C581.921 71.2647 579.991 73.6603 577.737 75.7354C575.502 77.8254 572.893 79.4787 569.918 80.6973C566.913 81.9283 563.548 82.5341 559.839 82.5342C554.417 82.5342 549.74 81.2667 545.854 78.6875L545.846 78.6826C542.058 76.1097 538.948 72.8383 536.521 68.877L536.519 68.8721C534.142 64.9343 532.389 60.6107 531.258 55.9072C530.131 51.2258 529.565 46.6749 529.565 42.2568C529.565 39.2318 529.759 36.1049 530.145 32.877L530.146 32.8682L531.023 32.9824L530.89 34.1758C530.597 36.9493 530.45 39.6429 530.45 42.2568C530.45 46.599 531.007 51.0811 532.118 55.7012C533.23 60.3211 534.949 64.5593 537.276 68.415C539.638 72.2708 542.661 75.4492 546.343 77.9502C549.827 80.2624 553.999 81.4902 558.857 81.6348L559.839 81.6494C563.451 81.6494 566.699 81.0589 569.582 79.8779C572.465 78.6969 574.984 77.0988 577.138 75.084C579.189 73.1952 580.967 71.0321 582.469 68.5938L582.766 68.1016C584.329 65.4618 585.579 62.6482 586.517 59.6611C587.489 56.6738 588.202 53.6166 588.653 50.4902C589.079 47.7546 589.318 45.0985 589.371 42.5225L589.383 41.4238ZM719.151 53.8779C719.357 53.8752 719.558 53.9438 719.72 54.0742C719.904 54.2234 720.021 54.4407 720.044 54.6768C720.588 60.2537 722.227 64.4041 724.865 67.2383C727.464 70.029 731.313 71.4902 736.566 71.4902V72.375L736.062 72.3701C731.058 72.2816 727.2 70.8649 724.485 68.1201L724.218 67.8418C721.404 64.8196 719.719 60.4597 719.163 54.7627L710.931 55.7012C711.07 64.1769 713.466 70.6206 718.121 75.0322C722.811 79.4438 729.098 81.6494 736.983 81.6494C740.175 81.6494 743.092 81.1154 745.733 80.0469L746.259 79.8262C749.038 78.6104 751.434 76.9772 753.449 74.9277C755.499 72.8783 757.062 70.4294 758.139 67.5811C759.25 64.7326 759.806 61.6235 759.806 58.2539C759.806 54.398 759.233 51.2019 758.087 48.666C756.975 46.0955 755.481 43.9589 753.605 42.2568C751.879 40.6611 749.924 39.3709 747.74 38.3857L747.301 38.1934C745.264 37.2815 743.201 36.462 741.111 35.7363L740.214 35.4316C738.998 35.0843 737.8 34.737 736.619 34.3896C735.438 34.0075 734.308 33.6423 733.231 33.2949C732.163 32.9302 731.105 32.5463 730.057 32.1426L729.012 31.7314C727.826 31.2147 726.747 30.5918 725.774 29.8623L725.364 29.543C724.287 28.6398 723.401 27.5631 722.706 26.3125C722.087 25.1401 721.758 23.7081 721.72 22.0166L721.717 21.6748C721.717 17.6803 722.967 14.7799 725.468 12.9736C727.969 11.1673 731.096 10.2637 734.848 10.2637L735.687 10.2783C739.814 10.4208 742.904 11.6315 744.956 13.9111L744.298 14.5029C742.335 12.3221 739.248 11.1485 734.848 11.1484C731.241 11.1484 728.306 12.0149 725.986 13.6904C723.782 15.2828 722.602 17.8719 722.602 21.6748C722.602 23.414 722.914 24.8088 723.489 25.8994C724.131 27.0492 724.944 28.0352 725.931 28.8633C726.936 29.6723 728.075 30.357 729.353 30.915C730.724 31.4632 732.112 31.9771 733.518 32.457H733.517C734.589 32.8031 735.714 33.1655 736.89 33.5459C738.062 33.8905 739.251 34.2354 740.457 34.5801C740.469 34.5836 740.482 34.5877 740.494 34.5918C742.919 35.4001 745.308 36.3309 747.662 37.3848H747.661C750.106 38.4292 752.287 39.835 754.199 41.6016C756.175 43.394 757.737 45.6337 758.893 48.3018C760.107 50.9874 760.691 54.3177 760.691 58.2539C760.691 61.7185 760.119 64.9342 758.966 67.8926L758.967 67.8936C757.849 70.8511 756.219 73.4061 754.079 75.5479L754.08 75.5488C751.982 77.6831 749.49 79.3783 746.613 80.6367C743.709 81.9071 740.495 82.5342 736.983 82.5342C728.926 82.5342 722.403 80.2758 717.515 75.6768L717.512 75.6748C712.634 71.0518 710.187 64.349 710.046 55.7148C710.039 55.2595 710.378 54.8729 710.83 54.8213L719.062 53.8838L719.151 53.8779ZM110.91 71.3848H73.915V44.498H104.762V35.5352H73.915V11.2021H109.556V2.23926H64.7441V80.3467H110.91V71.3848ZM165.703 2.23926H156.741V60.2861L126.051 2.23926H116.932V80.3467H125.946V22.3008L156.533 80.3467H165.703V2.23926ZM220.496 71.3848H183.501V44.498H214.348V35.5352H183.501V11.2021H219.142V2.23926H174.33V80.3467H220.496V71.3848ZM285.271 2.23926H276.101V80.3467H285.271V2.23926ZM416.771 23.707C416.77 19.5039 415.885 15.596 414.113 11.9834C413.036 9.86445 411.821 8.16222 410.466 6.87695C409.196 5.63938 407.804 4.6916 406.289 4.03418L405.985 3.90723C404.557 3.32973 403.035 2.92513 401.42 2.69336L400.722 2.60449C399.111 2.39177 397.394 2.27172 395.57 2.24512L394.782 2.23926V1.35449C396.935 1.3545 398.954 1.4777 400.838 1.72656H400.837C402.781 1.94401 404.609 2.39654 406.316 3.08691C408.063 3.7931 409.653 4.84896 411.084 6.24316H411.083C412.524 7.61291 413.794 9.40075 414.902 11.582L414.908 11.5938L415.241 12.2988C416.852 15.8398 417.656 19.6459 417.656 23.707C417.656 29.4158 416.227 34.1883 413.302 37.9541C410.699 41.3052 407.097 43.6448 402.551 45.0029C404.496 46.628 406.144 48.39 407.489 50.291C409.115 52.5876 410.612 55.1094 411.984 57.8535L423.188 79.9473C423.326 80.2216 423.313 80.5485 423.152 80.8105C422.991 81.0724 422.706 81.2324 422.398 81.2324H410.987C410.666 81.2324 410.37 81.0573 410.214 80.7764C409.856 80.1321 409.257 78.9699 408.424 77.3037C408.422 77.2993 408.419 77.2945 408.417 77.29C407.625 75.6369 406.659 73.7376 405.517 71.5918L405.514 71.5869C404.37 69.4043 403.123 67.082 401.771 64.6201C400.422 62.1648 399.091 59.867 397.779 57.7266L397.773 57.7178C396.496 55.5766 395.291 53.6818 394.157 52.0332C394.153 52.0275 394.149 52.0215 394.146 52.0156C393.047 50.3338 392.146 49.2202 391.442 48.6074C390.302 47.6648 389.244 47.1056 388.269 46.8691C387.213 46.6133 385.864 46.4766 384.204 46.4766H377.638V80.3467C377.638 80.8354 377.242 81.2324 376.753 81.2324H367.582C367.093 81.2322 366.697 80.8353 366.697 80.3467V2.23926C366.697 1.75077 367.094 1.35472 367.582 1.35449H394.782V2.23926H367.582V80.3467H376.753V45.5918H384.204C385.906 45.5918 387.331 45.7309 388.478 46.0088C389.624 46.2867 390.805 46.9293 392.021 47.9365C392.819 48.6313 393.775 49.8301 394.887 51.5322C396.033 53.1995 397.248 55.1102 398.533 57.2637C399.853 59.4174 401.191 61.728 402.546 64.1943C403.901 66.6606 405.152 68.9884 406.298 71.1768C407.444 73.3303 408.417 75.2409 409.216 76.9082C409.841 78.1585 410.329 79.116 410.681 79.7803L410.987 80.3467H422.398L411.195 58.2539C410.01 55.8832 408.732 53.6852 407.36 51.6602L406.767 50.8027C405.169 48.5448 403.119 46.4774 400.618 44.6016C405.666 43.4237 409.572 41.1377 412.338 37.7432L412.603 37.4111C415.381 33.8332 416.771 29.2649 416.771 23.707ZM475.368 71.3848H438.372V44.498H469.219V35.5352H438.372V11.2021H474.013V2.23926H429.201V80.3467H475.368V71.3848ZM643.968 23.707C643.968 19.5039 643.081 15.596 641.31 11.9834C640.233 9.86447 639.017 8.16221 637.662 6.87695C636.392 5.63938 635 4.69159 633.485 4.03418L633.182 3.90723C631.753 3.32971 630.231 2.92512 628.616 2.69336L627.919 2.60449C626.308 2.39173 624.59 2.27172 622.767 2.24512L621.979 2.23926V1.35449C624.131 1.3545 626.15 1.4777 628.034 1.72656H628.033C629.977 1.94401 631.805 2.39654 633.513 3.08691C635.26 3.7931 636.849 4.84896 638.28 6.24316H638.279C639.721 7.6129 640.99 9.40074 642.099 11.582L642.104 11.5938L642.438 12.2988C644.049 15.8398 644.852 19.6459 644.853 23.707C644.853 29.4158 643.423 34.1883 640.498 37.9541C637.895 41.3052 634.293 43.6448 629.747 45.0029C631.692 46.628 633.34 48.39 634.686 50.291C636.311 52.5876 637.808 55.1094 639.181 57.8535L650.384 79.9473C650.523 80.2216 650.51 80.5485 650.349 80.8105C650.188 81.0724 649.902 81.2324 649.595 81.2324H638.184C637.862 81.2324 637.566 81.0573 637.41 80.7764C637.052 80.1321 636.453 78.9699 635.62 77.3037C635.618 77.2993 635.616 77.2945 635.614 77.29C634.822 75.6368 633.855 73.7377 632.713 71.5918L632.71 71.5869C631.567 69.4043 630.319 67.082 628.967 64.6201C627.618 62.1647 626.287 59.867 624.976 57.7266L624.97 57.7178C623.692 55.5766 622.487 53.6818 621.354 52.0332C621.35 52.0275 621.346 52.0214 621.342 52.0156C620.243 50.3337 619.342 49.2202 618.639 48.6074C617.498 47.6648 616.44 47.1056 615.465 46.8691C614.41 46.6133 613.06 46.4766 611.4 46.4766H604.835V80.3467C604.835 80.8354 604.438 81.2324 603.949 81.2324H594.779C594.291 81.2324 593.894 80.8354 593.894 80.3467V2.23926C593.894 1.75062 594.291 1.35449 594.779 1.35449H621.979V2.23926H594.779V80.3467H603.949V45.5918H611.4C613.103 45.5918 614.527 45.7309 615.674 46.0088C616.82 46.2867 618.001 46.9293 619.217 47.9365C620.016 48.6313 620.971 49.8301 622.083 51.5322C623.229 53.1996 624.445 55.11 625.73 57.2637C627.05 59.4174 628.387 61.728 629.742 64.1943C631.097 66.6606 632.348 68.9883 633.494 71.1768C634.64 73.3303 635.613 75.2409 636.412 76.9082C637.037 78.1585 637.525 79.116 637.877 79.7803L638.184 80.3467H649.595L638.392 58.2539C637.206 55.8832 635.928 53.6852 634.557 51.6602L633.963 50.8027C632.365 48.5448 630.316 46.4774 627.814 44.6016C633.025 43.3857 637.02 40.9891 639.799 37.4111C642.491 33.945 643.879 29.5499 643.963 24.2256L643.968 23.707ZM707.357 40.9023C707.357 37.637 707.114 34.0415 706.628 30.1162C706.172 26.4363 705.32 22.9241 704.07 19.5801L703.814 18.9141C702.512 15.5598 700.736 12.5256 698.487 9.8125L698.031 9.27344C695.752 6.6031 692.846 4.69664 689.314 3.55273L688.6 3.33398C687.11 2.84769 685.528 2.54759 683.853 2.43359L683.129 2.39551C681.218 2.2913 679.411 2.23926 677.709 2.23926V1.35449C679.429 1.35449 681.252 1.40674 683.177 1.51172H683.176C685.191 1.58501 687.091 1.91016 688.874 2.49219H688.873C692.868 3.64919 696.154 5.71408 698.7 8.69434L699.169 9.24805C701.479 12.0349 703.302 15.1506 704.639 18.5908L704.898 19.2705C706.173 22.6819 707.043 26.2616 707.507 30.0078C707.997 33.9619 708.243 37.5941 708.243 40.9023C708.243 43.6146 708.067 46.5823 707.717 49.8037V49.8047C707.364 53.0145 706.747 56.1892 705.865 59.3271C705.015 62.4761 703.846 65.4856 702.359 68.3535C700.85 71.2636 698.903 73.7181 696.516 75.708L696.517 75.709C693.985 77.843 691.137 79.3126 687.982 80.1104L687.976 80.1123C684.922 80.858 681.864 81.2324 678.804 81.2324H656.397C655.909 81.2322 655.513 80.8353 655.513 80.3467V2.23926C655.513 1.75075 655.909 1.35469 656.397 1.35449H677.709V2.23926H656.397V80.3467H678.804L679.363 80.3428C681.978 80.3029 684.592 79.9842 687.206 79.3857L687.766 79.2529C690.788 78.4887 693.515 77.0816 695.946 75.0322C698.096 73.241 699.879 71.0529 701.296 68.4678L701.574 67.9453C703.033 65.1318 704.179 62.1793 705.013 59.0879C705.773 56.3828 706.333 53.6509 706.694 50.8926L706.837 49.708C707.184 46.5123 707.357 43.577 707.357 40.9023ZM579.118 41.5273C579.118 38.3214 578.795 34.9004 578.143 31.2627L578.141 31.2529C577.528 27.6128 576.476 24.255 574.986 21.1748L574.984 21.1709C573.509 18.0864 571.541 15.5729 569.083 13.6133L569.078 13.6094C566.727 11.7095 563.739 10.7324 560.047 10.7324C557.199 10.7324 554.678 11.376 552.463 12.6465L552.454 12.6514C550.2 13.9112 548.183 15.6409 546.407 17.8525L546.401 17.8604C545.183 19.3427 544.186 21.0817 543.418 23.0859L543.417 23.085C542.673 25.0805 542.098 27.1993 541.69 29.4414L541.689 29.4434C541.331 31.3873 541.076 33.358 540.927 35.3555L540.869 36.2139C540.731 38.4915 540.662 40.6107 540.662 42.5703C540.662 45.8112 540.987 49.1784 541.638 52.6729C542.317 56.1351 543.419 59.3163 544.938 62.2207C546.443 65.0963 548.408 67.4579 550.831 69.3193L551.286 69.6426C553.598 71.2077 556.434 72.0107 559.839 72.0107V72.8955L559.136 72.8848C555.889 72.7803 553.108 71.9443 550.792 70.377L550.303 70.0303C547.925 68.2065 545.976 65.9244 544.453 63.1846L544.154 62.6309C542.591 59.6435 541.462 56.3781 540.768 52.835C540.149 49.5133 539.82 46.2984 539.781 43.1904L539.777 42.5703C539.777 41.0852 539.816 39.5116 539.895 37.8506L539.986 36.1611C540.108 34.1246 540.336 32.1142 540.67 30.1309L540.819 29.2832C541.236 26.9906 541.827 24.819 542.591 22.7695C543.34 20.8156 544.303 19.0907 545.479 17.5947L545.718 17.2979C547.559 15.0053 549.66 13.1989 552.022 11.8789C554.385 10.5242 557.059 9.84668 560.047 9.84668C563.903 9.84668 567.099 10.8714 569.635 12.9209C572.205 14.9704 574.255 17.5933 575.783 20.7891C577.312 23.9502 578.388 27.3895 579.014 31.1064C579.674 34.7885 580.004 38.2621 580.004 41.5273L579.989 42.7861C579.921 45.7422 579.613 48.8317 579.065 52.0537L578.949 52.7334C578.339 56.1205 577.301 59.2636 575.835 62.1621L575.536 62.7354C574.01 65.5728 572.025 67.9526 569.582 69.874L569.086 70.2393C566.568 72.01 563.486 72.8954 559.839 72.8955V72.0107C563.567 72.0107 566.613 71.049 569.035 69.1777C571.534 67.2118 573.537 64.7442 575.045 61.7627C576.564 58.7575 577.615 55.4757 578.192 51.9121L578.193 51.9053C578.811 48.2663 579.118 44.807 579.118 41.5273ZM482.848 40.6943C482.848 37.8371 483.047 34.8333 483.446 31.6836L483.63 30.3252C484.118 26.9056 485.004 23.7453 486.286 20.8447L486.548 20.2686C487.972 17.2116 489.934 14.71 492.436 12.7646C494.937 10.8194 498.133 9.84668 502.023 9.84668L502.449 9.85156C504.562 9.89835 506.401 10.2968 507.964 11.0459C509.631 11.8101 511.09 12.887 512.341 14.2764C513.591 15.6658 514.616 17.3162 515.415 19.2266C516.249 21.137 516.943 23.2387 517.499 25.5312L526.565 23.082C525.697 19.8862 524.568 16.9332 523.179 14.2236C521.824 11.5143 520.122 9.18738 518.072 7.24219C516.183 5.38586 514.02 3.92577 511.581 2.86328L511.09 2.65625C508.647 1.61413 505.869 1.06026 502.755 0.995117L502.128 0.989258C496.639 0.989258 492.088 2.25712 488.476 4.79297L487.806 5.27051C484.498 7.69868 481.787 10.7528 479.67 14.4326C477.447 18.3232 475.866 22.6132 474.928 27.3027L474.764 28.1738C473.97 32.5192 473.573 36.7272 473.573 40.7979L473.578 41.6533C473.627 45.9335 474.042 50.3206 474.823 54.8145C475.692 59.6082 477.221 64.0032 479.409 67.998C481.632 71.9928 484.585 75.2752 488.268 77.8457C491.835 80.3022 496.347 81.5687 501.805 81.6455L502.336 81.6494C505.951 81.6494 509.154 81.0089 511.944 79.7266L512.497 79.4609C515.233 78.0931 517.586 76.3132 519.559 74.1211L519.948 73.6777C521.902 71.3981 523.52 68.7977 524.803 65.877L525.055 65.2881C526.292 62.2921 527.254 59.1738 527.942 55.9336L528.076 55.2842L519.219 52.418C518.732 55.1275 518.055 57.6983 517.187 60.1299C516.353 62.5268 515.241 64.6632 513.852 66.5391L513.587 66.8857C512.248 68.5995 510.634 69.9774 508.745 71.0195C506.765 72.1311 504.455 72.6875 501.814 72.6875V71.8027C504.328 71.8027 506.484 71.2741 508.312 70.248L508.317 70.2451C510.219 69.1958 511.826 67.787 513.141 66.0117C514.472 64.2139 515.544 62.1584 516.351 59.8389L516.353 59.832C517.204 57.4493 517.869 54.9263 518.348 52.2617L518.369 52.1689C518.431 51.9566 518.572 51.7742 518.764 51.6592C518.983 51.5279 519.248 51.4975 519.491 51.5762L528.349 54.4414C528.776 54.5797 529.032 55.0166 528.944 55.457C528.239 58.9856 527.215 62.3758 525.872 65.626L525.871 65.6289C524.602 68.6671 522.985 71.3859 521.018 73.7793L520.62 74.2529C518.491 76.7426 515.912 78.743 512.893 80.2529C509.831 81.7836 506.304 82.5342 502.336 82.5342C496.509 82.5342 491.631 81.2372 487.766 78.5752L487.761 78.5713C483.966 75.9224 480.923 72.5378 478.636 68.4277L478.633 68.4229C476.396 64.339 474.837 59.8535 473.953 54.9727L473.952 54.9668C473.11 50.1264 472.688 45.4027 472.688 40.7979C472.689 36.3943 473.147 31.839 474.06 27.1338L474.061 27.1289C475.016 22.3525 476.628 17.9717 478.901 13.9932L478.902 13.9912C481.223 9.95742 484.245 6.64603 487.967 4.06836C491.761 1.40493 496.502 0.103516 502.128 0.103516C505.589 0.103566 508.692 0.67453 511.423 1.83691H511.424C514.165 2.95494 516.586 4.54322 518.682 6.59961L519.076 6.9834C521.027 8.92201 522.656 11.2035 523.966 13.8203L524.229 14.3418C525.529 16.9658 526.591 19.8028 527.419 22.8496C527.481 23.0763 527.45 23.3187 527.333 23.5225C527.216 23.7262 527.023 23.8753 526.796 23.9365L517.729 26.3857C517.499 26.4479 517.253 26.4145 517.048 26.293C516.842 26.1714 516.695 25.9712 516.639 25.7393C516.093 23.4901 515.414 21.4379 514.604 19.5801L514.598 19.5674V19.5664C513.833 17.7384 512.859 16.1758 511.683 14.8682C510.511 13.5667 509.15 12.5625 507.595 11.8496C507.59 11.8475 507.586 11.8459 507.581 11.8438C506.058 11.114 504.215 10.7324 502.023 10.7324C498.284 10.7324 495.292 11.6649 492.979 13.4639C490.596 15.3174 488.718 17.7047 487.35 20.6426C485.965 23.6136 485.016 26.8811 484.506 30.4502C483.99 34.0613 483.733 37.4758 483.733 40.6943C483.733 43.9158 483.973 47.3854 484.455 51.1045L484.55 51.7842C485.048 55.1666 485.934 58.3165 487.203 61.2363C488.543 64.3167 490.375 66.8605 492.694 68.8848L493.129 69.2344C495.345 70.9255 498.218 71.8027 501.814 71.8027V72.6875L501.075 72.6748C497.419 72.5527 494.435 71.5146 492.123 69.5605C489.844 67.574 488.022 65.1145 486.658 62.1816L486.392 61.5889C485.002 58.393 484.063 54.9366 483.577 51.2197C483.152 47.9369 482.913 44.8401 482.859 41.9297L482.848 40.6943ZM258.721 59.2441C258.721 57.4221 258.439 55.8948 257.905 54.6396C257.359 53.3547 256.609 52.2565 255.655 51.335C254.686 50.3984 253.551 49.6184 252.243 48.9971C252.238 48.9946 252.233 48.9919 252.228 48.9893C250.872 48.3117 249.429 47.6998 247.897 47.1553L247.892 47.1533C246.76 46.7419 245.629 46.365 244.499 46.0225C244.489 46.0193 244.478 46.0152 244.468 46.0117C243.372 45.635 242.222 45.2751 241.021 44.9316L241.011 44.9287C238.654 44.2251 236.281 43.3818 233.893 42.3984C231.448 41.3917 229.248 40.0579 227.299 38.3975C225.319 36.7108 223.734 34.5915 222.539 32.0566C221.322 29.4738 220.735 26.3137 220.735 22.6133C220.735 19.3201 221.273 16.2899 222.36 13.5342C223.444 10.7542 224.985 8.35706 226.986 6.35547C228.986 4.32107 231.365 2.77856 234.113 1.72852L234.633 1.53125C237.248 0.575873 240.105 0.103516 243.192 0.103516C250.216 0.10359 255.939 2.15923 260.268 6.33984L260.672 6.73535C264.787 10.8722 266.901 16.6292 267.107 23.8906C267.121 24.3519 266.777 24.7462 266.318 24.7959L257.669 25.7334C257.432 25.7591 257.195 25.6885 257.011 25.5371C256.827 25.3856 256.712 25.1661 256.691 24.9287C256.283 20.1332 255.001 16.709 252.965 14.5137L252.955 14.5039L253.613 13.9111C255.836 16.308 257.156 19.9556 257.573 24.8535L266.223 23.916C266.021 16.8155 263.961 11.2958 260.043 7.35742L259.657 6.98145C255.653 3.11161 250.377 1.11614 243.83 0.995117L243.192 0.989258C239.997 0.989258 237.078 1.50975 234.438 2.55176L233.947 2.74609C231.515 3.74548 229.403 5.15771 227.612 6.98145L227.259 7.34375C225.519 9.17967 224.161 11.3518 223.184 13.8594L222.994 14.3574C222.078 16.8651 221.62 19.6171 221.62 22.6133L221.627 23.2832C221.694 26.6011 222.265 29.3999 223.34 31.6797C224.486 34.1112 225.997 36.1257 227.873 37.7236C229.749 39.3215 231.867 40.6074 234.229 41.5801C236.592 42.5527 238.936 43.3863 241.264 44.0811C242.479 44.4284 243.643 44.7927 244.755 45.1748C245.901 45.5222 247.048 45.9044 248.194 46.3213C249.757 46.8771 251.234 47.5026 252.623 48.1973C254.012 48.8572 255.228 49.6909 256.271 50.6982C257.313 51.7056 258.129 52.9044 258.72 54.2939C259.31 55.6834 259.605 57.3336 259.605 59.2441L259.602 59.6416C259.52 63.7198 258.166 66.8527 255.541 69.04L255.288 69.2451C252.651 71.3314 249.296 72.3749 245.225 72.375V71.4902C249.266 71.4902 252.491 70.4244 254.976 68.3594C257.44 66.3052 258.721 63.3147 258.721 59.2441ZM331.103 59.2441C331.103 57.4221 330.821 55.8948 330.287 54.6396C329.741 53.3549 328.991 52.2564 328.038 51.335C327.069 50.3984 325.934 49.6184 324.626 48.9971C324.621 48.9945 324.615 48.9919 324.609 48.9893C323.254 48.3117 321.812 47.6998 320.28 47.1553L320.273 47.1533C319.142 46.742 318.011 46.365 316.881 46.0225C316.87 46.0193 316.86 46.0153 316.85 46.0117C315.754 45.6351 314.605 45.275 313.403 44.9316L313.393 44.9287C311.035 44.2251 308.662 43.3817 306.274 42.3984C303.829 41.3917 301.63 40.0579 299.681 38.3975C297.701 36.7108 296.116 34.5915 294.921 32.0566C293.703 29.4738 293.117 26.3136 293.117 22.6133C293.117 19.3201 293.654 16.2899 294.742 13.5342C295.758 10.928 297.176 8.65811 298.998 6.73535L299.368 6.35547C301.368 4.32107 303.747 2.77857 306.495 1.72852C309.251 0.640735 312.281 0.103516 315.574 0.103516C322.597 0.103545 328.321 2.15926 332.649 6.33984L333.054 6.73535C337.169 10.8722 339.283 16.6291 339.489 23.8906C339.502 24.3519 339.159 24.7462 338.7 24.7959L330.051 25.7334C329.814 25.7591 329.576 25.6886 329.393 25.5371C329.209 25.3856 329.093 25.1661 329.073 24.9287C328.665 20.1332 327.383 16.709 325.347 14.5137L325.338 14.5039L325.995 13.9111C328.218 16.308 329.538 19.9556 329.955 24.8535L338.605 23.916C338.404 16.8155 336.343 11.2958 332.425 7.35742L332.04 6.98145C328.035 3.11151 322.759 1.1161 316.212 0.995117L315.574 0.989258C312.378 0.989258 309.46 1.50969 306.82 2.55176L306.329 2.74609C303.897 3.74547 301.785 5.15776 299.994 6.98145L299.641 7.34375C297.9 9.17966 296.542 11.3518 295.565 13.8594L295.376 14.3574C294.46 16.8651 294.002 19.6171 294.002 22.6133L294.009 23.2832C294.076 26.6011 294.647 29.3999 295.722 31.6797C296.868 34.1112 298.379 36.1257 300.255 37.7236C302.131 39.3215 304.249 40.6074 306.611 41.5801C308.973 42.5527 311.319 43.3863 313.646 44.0811C314.862 44.4284 316.026 44.7927 317.138 45.1748C318.284 45.5221 319.43 45.9045 320.576 46.3213C322.139 46.877 323.615 47.5026 325.005 48.1973C326.394 48.8572 327.61 49.691 328.652 50.6982C329.694 51.7056 330.511 52.9044 331.102 54.2939C331.692 55.6834 331.987 57.3336 331.987 59.2441L331.983 59.6416C331.901 63.7198 330.548 66.8527 327.923 69.04L327.67 69.2451C325.033 71.3314 321.678 72.375 317.606 72.375V71.4902C321.648 71.4902 324.873 70.4243 327.357 68.3594C329.822 66.3052 331.102 63.3148 331.103 59.2441ZM750.063 59.2441C750.063 57.4221 749.781 55.8948 749.248 54.6396C748.702 53.3547 747.951 52.2565 746.998 51.335C746.029 50.3984 744.894 49.6184 743.586 48.9971C743.581 48.9946 743.576 48.9919 743.57 48.9893C742.215 48.3117 740.772 47.6998 739.24 47.1553L739.234 47.1533C738.103 46.7419 736.971 46.3651 735.841 46.0225C735.83 46.0193 735.82 46.0152 735.81 46.0117C734.714 45.6351 733.565 45.275 732.363 44.9316L732.354 44.9287C729.996 44.2251 727.623 43.3818 725.235 42.3984C722.79 41.3917 720.591 40.0579 718.642 38.3975C716.662 36.7108 715.077 34.5916 713.882 32.0566C712.664 29.4738 712.077 26.3137 712.077 22.6133C712.077 19.3201 712.614 16.2899 713.702 13.5342C714.786 10.754 716.327 8.35713 718.329 6.35547C720.329 4.32108 722.708 2.77854 725.456 1.72852L725.976 1.53125C728.591 0.575961 731.447 0.103547 734.534 0.103516C741.56 0.103516 747.286 2.16072 751.615 6.34473H751.614C755.992 10.5068 758.237 16.3975 758.45 23.8906C758.463 24.3519 758.12 24.7461 757.661 24.7959L749.012 25.7334C748.775 25.7591 748.537 25.6884 748.354 25.5371C748.17 25.3856 748.054 25.1661 748.034 24.9287C747.626 20.133 746.343 16.709 744.307 14.5137L744.298 14.5039L744.956 13.9111C747.179 16.308 748.499 19.9556 748.916 24.8535L757.565 23.916C757.364 16.8153 755.303 11.2958 751.385 7.35742L751 6.98145C746.995 3.11142 741.719 1.11602 735.172 0.995117L734.534 0.989258C731.338 0.989291 728.42 1.50966 725.78 2.55176C723.14 3.55914 720.866 5.03622 718.955 6.98145L718.602 7.34375C716.861 9.1797 715.502 11.3517 714.525 13.8594L714.336 14.3574C713.42 16.865 712.963 19.6172 712.963 22.6133L712.969 23.2832C713.036 26.601 713.607 29.4 714.682 31.6797C715.828 34.1112 717.339 36.1258 719.215 37.7236C721.091 39.3216 723.21 40.6074 725.572 41.5801C727.934 42.5527 730.279 43.3863 732.606 44.0811C733.822 44.4284 734.986 44.7927 736.098 45.1748C737.244 45.5222 738.391 45.9044 739.537 46.3213C741.1 46.8771 742.576 47.5026 743.966 48.1973C745.355 48.8573 746.571 49.6909 747.613 50.6982C748.655 51.7056 749.472 52.9044 750.062 54.2939C750.653 55.6834 750.948 57.3337 750.948 59.2441L750.944 59.6416C750.862 63.7198 749.509 66.8527 746.884 69.04L746.631 69.2451C743.993 71.3316 740.638 72.375 736.566 72.375V71.4902C740.608 71.4902 743.834 70.4244 746.318 68.3594C748.783 66.3052 750.063 63.3146 750.063 59.2441ZM29.9609 49.5518V40.7979C29.9612 40.3106 30.3555 39.915 30.8428 39.9131L57.834 39.8086C58.0692 39.8078 58.2953 39.9014 58.4619 40.0674C58.6284 40.2334 58.7217 40.4592 58.7217 40.6943V70.0303C58.7216 70.1804 58.6841 70.3215 58.6182 70.4453V80.3467C58.6182 80.8354 58.2212 81.2324 57.7324 81.2324H48.7705C48.2818 81.2324 47.8857 80.8354 47.8857 80.3467V77.8691C45.765 79.0537 43.5387 80.0726 41.2041 80.9189L41.2031 80.918C38.3271 81.9951 35.3422 82.5342 32.2529 82.5342C26.4337 82.5342 21.4395 81.3274 17.3135 78.8662L17.3057 78.8613C13.274 76.3995 9.94969 73.2372 7.3418 69.3789L7.33984 69.376C4.74166 65.4964 2.8604 61.1256 1.69141 56.2725L1.69043 56.2656C0.564156 51.4086 1.15847e-05 46.5649 0 41.7363C0 36.9144 0.509955 32.0596 1.5293 27.1738L1.53027 27.1689C2.59167 22.2159 4.34658 17.7434 6.80078 13.7598L6.80176 13.7578C9.14784 9.97056 12.1581 6.85489 15.8262 4.41699L16.5684 3.93848C20.6637 1.36573 25.647 0.103516 31.4717 0.103516C35.4085 0.103561 38.8743 0.688505 41.8486 1.88379C44.8074 3.03845 47.3468 4.72167 49.4531 6.93359C51.5841 9.10064 53.3261 11.7103 54.6846 14.749C56.0348 17.7694 57.0614 21.0822 57.7676 24.6836C57.8524 25.1165 57.6053 25.5461 57.1885 25.6904L49.0596 28.5039C48.8234 28.5855 48.5638 28.5636 48.3447 28.4434C48.1255 28.3229 47.9668 28.1145 47.9092 27.8711C47.2925 25.2675 46.5583 22.9138 45.709 20.8076C45.7069 20.8025 45.7051 20.7972 45.7031 20.792C44.9015 18.6876 43.8567 16.904 42.5781 15.4287C41.3105 13.9661 39.7857 12.8468 37.9951 12.0654C37.9891 12.0628 37.9835 12.0594 37.9775 12.0566C36.2458 11.2549 34.1212 10.8359 31.5752 10.8359C27.5396 10.836 24.2696 11.7438 21.7061 13.4961C19.0799 15.2912 16.9844 17.6164 15.417 20.4844C13.835 23.3792 12.7002 26.6386 12.0205 30.2705C11.3692 33.9386 11.0449 37.5528 11.0449 41.1113C11.0449 44.6666 11.3686 48.2586 12.0186 51.8877H12.0195C12.6986 55.4526 13.8325 58.6816 15.417 61.5811C16.9826 64.4458 19.0932 66.7886 21.7539 68.6191L22.249 68.9385C24.7691 70.484 27.9144 71.2812 31.7314 71.2812V72.166C27.7912 72.166 24.4767 71.3419 21.7881 69.6934L21.2588 69.3525C18.6536 67.5614 16.5519 65.2971 14.9541 62.5596L14.6406 62.0059C13.008 59.0185 11.8442 55.701 11.1494 52.0537C10.5307 48.6018 10.2018 45.1799 10.1631 41.7891L10.1602 41.1113C10.1602 37.4986 10.4894 33.8331 11.1494 30.1162C11.8442 26.3994 13.008 23.047 14.6406 20.0596C16.2733 17.0722 18.4618 14.6404 21.2061 12.7646C23.9503 10.8889 27.4068 9.95121 31.5752 9.95117C34.2153 9.95117 36.4738 10.3855 38.3496 11.2539C40.2601 12.0876 41.8924 13.2865 43.2471 14.8496C44.6018 16.4128 45.6966 18.2882 46.5303 20.4766C47.3987 22.6302 48.1453 25.0271 48.7705 27.667L56.8994 24.8535C56.2047 21.3103 55.197 18.062 53.877 15.1094C52.6395 12.3415 51.0816 9.95494 49.2031 7.9502L48.8223 7.55469C46.8075 5.43571 44.3758 3.81961 41.5273 2.70801C38.8571 1.63347 35.744 1.06327 32.1885 0.996094L31.4717 0.989258C25.7748 0.989258 20.9634 2.22222 17.0381 4.68848L16.3164 5.15332C12.7547 7.52038 9.83424 10.5439 7.55469 14.2236C5.15783 18.1142 3.43764 22.4913 2.39551 27.3545C1.38812 32.183 0.884766 36.9773 0.884766 41.7363L0.891602 42.6289C0.956748 47.0925 1.50966 51.5714 2.55176 56.0654C3.6981 60.8245 5.53935 65.0974 8.0752 68.8838C10.611 72.6354 13.8422 75.7096 17.7676 78.1064C21.48 80.3208 25.9555 81.4973 31.1943 81.6357L32.2529 81.6494C35.2402 81.6494 38.1235 81.129 40.9023 80.0869C43.6813 79.0795 46.3042 77.8287 48.7705 76.335V80.3467H57.7324V70.0303H57.8369V40.6943L30.8457 40.7979V49.5518H48.666V64.6631C46.686 66.8515 44.1151 68.6578 40.9541 70.082C37.7931 71.4714 34.7188 72.166 31.7314 72.166V71.2812C34.4006 71.2812 37.1632 70.6997 40.0244 69.5166L40.5986 69.2715C43.5423 67.9442 45.9283 66.2873 47.7812 64.3145V50.4375H30.8457C30.3571 50.4374 29.9609 50.0404 29.9609 49.5518ZM697.302 40.7979C697.302 38.4658 697.182 35.9216 696.94 33.1641C696.702 30.442 696.209 27.8257 695.463 25.3145L695.459 25.3008C694.752 22.7762 693.728 20.4785 692.39 18.4033L692.386 18.3975C691.079 16.3387 689.408 14.7844 687.371 13.7139C686.061 13.0758 684.52 12.6654 682.734 12.5C682.728 12.4994 682.722 12.4987 682.716 12.498C680.904 12.2929 679.201 12.1914 677.605 12.1914H666.558V70.3955H677.813V71.2803H665.673V11.3057H677.605C679.238 11.3057 680.975 11.4107 682.815 11.6191C684.691 11.7928 686.341 12.2263 687.766 12.9209C689.954 14.0672 691.743 15.7354 693.133 17.9238C694.522 20.0775 695.582 22.4573 696.312 25.0625C697.076 27.633 697.579 30.308 697.822 33.0869C698.065 35.8656 698.187 38.4359 698.188 40.7979L698.182 41.7471C698.155 43.9847 698.035 46.3952 697.822 48.9785C697.579 51.8965 697.041 54.7284 696.207 57.4727C695.408 60.2168 694.279 62.7178 692.82 64.9756L692.541 65.3857C691.116 67.4028 689.264 68.9162 686.984 69.9258L686.447 70.125C685.186 70.5696 683.871 70.8675 682.503 71.0195C680.94 71.1932 679.377 71.2803 677.813 71.2803V70.3955C679.344 70.3955 680.874 70.3107 682.405 70.1406C683.885 69.9762 685.295 69.6312 686.639 69.1094C688.908 68.1014 690.717 66.5669 692.08 64.4902C693.488 62.3101 694.582 59.8896 695.357 57.2246L695.36 57.2148C696.175 54.5317 696.702 51.7621 696.94 48.9053C697.182 45.9729 697.302 43.2705 697.302 40.7979ZM406.819 23.6035C406.819 19.691 405.802 16.7932 403.886 14.7822C403.883 14.7789 403.879 14.7758 403.876 14.7725C402.009 12.7495 399.204 11.6699 395.303 11.6699H377.742V35.8486H393.375V36.7344H376.857V10.7852H395.303C399.367 10.7852 402.442 11.9139 404.526 14.1719C406.645 16.3951 407.704 19.5393 407.704 23.6035L407.701 24.0391C407.624 28.5021 406.357 31.7265 403.9 33.7119L403.66 33.8975C401.145 35.7884 397.716 36.7344 393.375 36.7344V35.8486C397.732 35.8486 401.022 34.8689 403.351 33.0186C405.595 31.2005 406.819 28.1433 406.819 23.6035ZM634.016 23.6035C634.016 19.691 632.999 16.7933 631.082 14.7822C631.079 14.7789 631.075 14.7758 631.072 14.7725C629.205 12.7496 626.401 11.67 622.5 11.6699H604.938V35.8486H620.571V36.7344H604.054V10.7852H622.5C626.564 10.7852 629.638 11.914 631.723 14.1719C633.842 16.3951 634.9 19.5393 634.9 23.6035L634.897 24.0391C634.821 28.5021 633.553 31.7265 631.097 33.7119L630.856 33.8975C628.341 35.7883 624.912 36.7344 620.571 36.7344V35.8486C624.928 35.8486 628.218 34.8689 630.547 33.0186C632.792 31.2005 634.016 28.1433 634.016 23.6035ZM110.44 11.2021C110.44 11.6908 110.044 12.0869 109.556 12.0869H74.7998V34.6504H104.762C105.25 34.6504 105.646 35.0466 105.646 35.5352V44.498C105.646 44.9867 105.25 45.3828 104.762 45.3828H74.7998V70.5H110.91C111.399 70.5 111.796 70.896 111.796 71.3848V80.3467C111.796 80.8354 111.399 81.2324 110.91 81.2324H64.7441C64.2554 81.2323 63.8594 80.8354 63.8594 80.3467V2.23926C63.8595 1.75067 64.2555 1.35457 64.7441 1.35449H109.556C110.044 1.35449 110.44 1.75062 110.44 2.23926V11.2021ZM166.589 80.3467C166.589 80.8354 166.192 81.2324 165.703 81.2324H156.533C156.205 81.2324 155.903 81.0502 155.75 80.7598L126.831 25.8779V80.3467C126.831 80.8354 126.435 81.2324 125.946 81.2324H116.932C116.443 81.2322 116.047 80.8353 116.047 80.3467V2.23926C116.047 1.75073 116.443 1.35467 116.932 1.35449H126.051L126.172 1.36328C126.451 1.40193 126.699 1.57243 126.833 1.82617L155.856 56.7188V2.23926C155.857 1.75063 156.253 1.35451 156.741 1.35449H165.703C166.192 1.35449 166.589 1.75062 166.589 2.23926V80.3467ZM220.026 11.2021C220.026 11.6908 219.63 12.0869 219.142 12.0869H184.386V34.6504H214.348C214.836 34.6504 215.233 35.0466 215.233 35.5352V44.498C215.233 44.9867 214.836 45.3828 214.348 45.3828H184.386V70.5H220.496C220.985 70.5 221.382 70.896 221.382 71.3848V80.3467C221.382 80.8354 220.985 81.2324 220.496 81.2324H174.33C173.841 81.2323 173.445 80.8354 173.445 80.3467V2.23926C173.445 1.7507 173.842 1.35461 174.33 1.35449H219.142C219.63 1.35449 220.026 1.75062 220.026 2.23926V11.2021ZM286.156 80.3467C286.156 80.8353 285.76 81.2322 285.271 81.2324H276.101C275.612 81.2324 275.216 80.8354 275.216 80.3467V2.23926C275.216 1.75062 275.612 1.35449 276.101 1.35449H285.271C285.76 1.35472 286.156 1.75077 286.156 2.23926V80.3467ZM474.897 11.2021C474.897 11.6908 474.501 12.0869 474.013 12.0869H439.257V34.6504H469.219C469.707 34.6504 470.104 35.0466 470.104 35.5352V44.498C470.104 44.9867 469.707 45.3828 469.219 45.3828H439.257V70.5H475.368C475.857 70.5002 476.253 70.8962 476.253 71.3848V80.3467C476.253 80.8353 475.857 81.2322 475.368 81.2324H429.201C428.713 81.2323 428.316 80.8354 428.316 80.3467V2.23926C428.317 1.75071 428.713 1.35462 429.201 1.35449H474.013C474.501 1.35449 474.897 1.75062 474.897 2.23926V11.2021Z" fill="#A7A7A7"/>
</svg>
