<svg width="109" height="190" viewBox="0 0 109 190" fill="none" xmlns="http://www.w3.org/2000/svg">
<path d="M99.3867 17.6898H99.2581V17.4297H99.5187V17.6898H99.3867ZM86.3607 56.9717H86.2321V56.7116H86.4927V56.9717H86.3607ZM41.6832 63.7355H40.3806V62.4348H39.599V61.6543H39.078V59.5732H38.2964V58.2724H37.5149V55.671H40.3806V55.1507H41.4574L41.8326 55.5218L42.2042 55.8964V56.4514H43.5068V56.9717H45.591V56.4514H46.8936V55.671H48.1962V56.4514H48.9778V58.2724H48.1962V59.0529H46.3726V59.5732H45.591V60.912L45.2263 61.2832L44.8511 61.6543H44.2954V62.4348H43.7361L43.3644 62.8059L42.9928 63.1805V63.7355H41.6832ZM63.7302 90.2702H62.8513L62.6846 89.0354L62.5179 87.7971L62.1392 87.1485L61.7641 86.4999L61.4167 85.716L61.1145 85.0673L60.8123 84.4187L60.4893 84.0719L60.1628 83.725V83.2984L59.5097 83.1353L58.8602 82.9723V82.4624H58.0786V81.9768L57.0365 81.63V80.8842H56.2723V80.4784L54.8377 79.861L53.82 79.195L53.4726 78.8863L53.1253 78.5811V77.7625H51.8435L51.3746 77.2803L50.9091 76.8017L49.0472 75.9623L47.175 75.1125L47.036 74.7656L46.9006 74.4188H44.2884V73.6383H43.5068V72.8405H40.9016V72.3203H39.599V71.5398H37.5149V71.0195H36.2123V72.3203H33.6071V71.5398H33.086V69.7188H33.6071V68.4181H34.3886V67.6376H33.6071V67.1174H34.3886V65.0362H33.6071V61.134H33.086V60.3536H33.6071V59.6183L32.954 59.313L33.6071 59.0078V58.2724H33.086V55.1507H32.3045V50.9884H32.8603L33.2354 50.6172L33.6071 50.2461V49.6877H34.9097V50.4681H35.4655L35.8406 50.8392L36.2123 51.2138V52.2891H35.6912V55.1507H36.2123V63.7355H36.9938V68.4181H39.599V68.9384H40.9016V69.7188H43.5068V70.2391H45.07V71.0195H46.8936V71.4323L48.0642 71.9179L49.2383 72.4V72.8648L51.246 73.8187L53.2538 74.7726L54.1882 75.7021V77.5231H55.7791L56.6753 78.2377L57.5749 78.9522V79.6043H58.3565V80.3847H58.7455L59.9196 78.5776V78.0434H61.7433V80.1732L61.2361 80.8183L60.729 81.4635L60.8714 81.8381L61.0173 82.2092H62.5248L62.6047 83.118L62.6638 83.6903L63.3585 84.613L64.0532 85.5356L64.5742 87.8006V90.2737L63.7302 90.2702ZM105.379 19.771H105.511V19.5109H105.25V19.771H105.379ZM102.773 19.771H102.905V19.5109H102.645V19.771H102.773ZM106.16 21.8522H106.292V21.592H106.032V21.8522H106.16ZM72.5531 23.413H72.6851V23.1529H72.4246V23.413H72.5531ZM88.0315 25.7474H88.1843L88.6602 25.4005L89.1396 25.0537L88.8478 24.5126L88.556 23.9715H88.2989L87.8022 24.2386L87.309 24.5022L87.6007 25.1473L87.896 25.7925L88.0315 25.7474ZM97.4831 26.5348H97.6777L97.8652 26.233L98.0493 25.9347L97.9764 24.3218L97.7263 23.0835L97.4936 22.8511L97.4032 24.6929L97.3164 26.5348H97.4831ZM76.256 27.2285L76.381 27.1036L76.1031 26.6284L75.8287 26.1567V26.3301V26.5036L76.1552 27.3499L76.256 27.2285ZM77.9928 27.8459H78.1074L77.9684 27.3152L77.8295 26.7845L77.569 27.0412L77.7253 27.4435L77.8781 27.8459H77.9928ZM97.042 28.106H97.174V27.8459H96.9135V28.0956L97.042 28.106ZM95.4059 27.8945L95.6595 27.6413L95.5553 27.1591L95.4546 26.677L95.3052 27.4123L95.1558 28.1442L95.4059 27.8945ZM97.3025 29.6669H97.4345V29.4068H97.174V29.6669H97.3025ZM92.7451 34.079H93.0925L92.7451 33.7321L92.3978 34.079H92.7451ZM92.5715 41.1029H94.0477V40.5826L92.6791 40.7456L91.3106 40.9086L91.2029 41.0058L91.0952 41.1063L92.5715 41.1029ZM77.8955 33.5587H77.635V33.0384H78.156V33.5587H77.8955ZM87.1422 41.8833H87.5347V41.1029H89.341L89.1847 40.6971L89.0284 40.2912L90.1399 39.9999V39.542H89.473L89.0284 39.0217L88.5803 38.5014H87.7953V37.1348L90.2685 37.44L93.6552 37.7279L92.6132 37.2389L91.2237 37.218L89.8343 37.2007L90.008 36.2885L90.6054 36.2052L91.2063 36.1185L91.123 35.5739L91.0431 35.0259L89.4244 34.6444L87.8022 34.2628L87.8856 33.7148L87.9655 33.1667L88.7123 33.08L89.4556 32.9933L89.935 32.6464L90.4109 32.2996L89.6849 32.1574L88.9589 32.0152L86.7462 32.2788V31.7377H84.3842L84.0855 30.9607L83.8909 31.0821L83.6964 31.2L82.8106 30.541L81.9249 29.882L81.9909 29.6392L82.0569 29.3964H81.2545L80.3096 27.1869L80.136 26.4689L79.9588 25.7543H79.5767L79.2016 25.9937L78.8264 26.2295L79.3996 27.9638L79.7469 28.8067L80.0943 29.6496L79.7469 29.9964L79.4169 30.3259L78.9272 29.6773L78.4374 29.0322L78.0275 29.4415L78.7222 29.875L78.5312 30.1837L78.3436 30.489L77.8781 30.0138L77.371 29.5594L76.3289 29.4831L77.1348 30.371L77.4405 32.258H76.2004L75.3077 31.4914L74.408 30.7283L73.9842 30.9884L73.6716 30.1768H72.5948L72.1189 29.7467L71.643 29.3166V29.9167H72.1641V31.1862L72.4524 31.3665L72.7407 31.5434L72.435 31.7307L72.1328 31.918L72.4802 33.3055H72.9456V33.8639L73.5952 34.5576L74.2065 35.3554L74.8179 36.1532L75.7037 37.1175L76.5929 38.0852V39.2853H77.1139V40.0658H78.156V40.5826H80.202L80.9835 39.8022H82.8454V39.2472L83.2171 38.8726L83.5887 38.5014H84.148V37.721H86.2321V39.8022H85.4506V41.1029H86.7532V41.8833H87.1422ZM65.2585 71.0195H65.6511V70.2391H64.8695V71.0195H65.2585ZM55.5081 139.958H54.9697V138.657H54.1882V133.975H54.9697V132.674H55.4908V131.373H56.2723V130.815L56.644 130.444L57.0157 130.072H57.5749V129.292H58.1307L58.5059 128.921L58.8775 128.55V127.471H59.6591V125.39H60.1801V124.089H60.9617V122.788H61.4827V121.488H62.2643V120.187H62.7853V118.886H63.5669V117.325H64.0879V114.724H64.8695V113.423H65.6511V110.822H66.1721V108.22H66.9537V105.619H67.4747V102.237H68.2563V100.156H67.4747V93.6521H66.9537V90.7905H66.2971L65.9741 89.75L65.6511 88.7094V84.5471L65.4044 84.0961L65.1578 83.6418L64.0879 80.6345V78.8308H63.5669V77.5231H62.7853V74.9217H62.2643V69.7188H61.4827V68.4181H60.9617V66.3369H60.1801V65.5565H59.6591V64.2558H58.8775V63.1805L58.5059 62.8059L58.1307 62.4348H57.5749V61.134H56.7934V59.5732H55.4908V58.2724H54.9697V56.4514H56.2723V55.671H57.5749V56.4514H60.9617V55.671H61.4827V54.3703H60.9617V53.5898H60.1801V52.2891H59.6591V50.4681H58.8775V47.0862H58.3565V45.2305L58.7282 44.8559L59.0998 44.4848H61.4827V45.7855H62.2643V50.2461L62.636 50.6172L63.0076 50.9884H63.5669V51.7688H64.0879V53.0695H64.8695V55.671H66.1721V61.134H65.6511V62.955H66.1721V67.1174H67.4747V68.4181H68.0305L68.4056 68.7892L68.7773 69.1638V70.2391H69.5589V71.0195H70.0799V70.2391H71.4172L71.7924 69.868L72.1641 69.4968V68.9384H72.7198L73.095 68.5672L73.4667 68.1961V67.1174H74.2482V66.3369H73.4667V65.7819L73.095 65.4073L72.7198 65.0362H71.643V63.7355H70.8615V61.6543H70.3022L69.9305 61.2832L69.5589 60.912V59.5732H68.7773V56.9717H68.2563V55.1507H67.4747V51.7688H66.9537V48.3869H66.1721V46.3058H65.6511V44.4848H64.8695V43.7043H64.0879V42.4036H63.5669V40.3224H63.0076L62.636 39.9513L62.2643 39.5802V39.0217H60.9617V38.5014H60.1801V37.9465L59.8154 37.5718L59.4403 37.2007H58.8845V36.6457L58.5128 36.2711L58.1377 35.9H57.5819V35.1195H57.0226L56.651 34.7484L56.2793 34.3773V33.0384H55.4977V31.8001L56.0188 31.6614L56.5398 31.5261V32.1747L57.8667 32.7782H58.624V33.5587H59.145V34.8594H60.4476V35.6398H61.2292V36.1601H62.5318V36.9406H63.0528V37.6343L63.6537 38.1997L64.2581 38.765H65.137V39.542H65.6927L66.0679 39.9132L66.4396 40.2878V41.6232H67.7422V42.1435H68.5237V44.2246H69.0448V45.5253H69.8263V46.8261H70.3474V48.3245L71.1289 48.9697V51.5087H71.9105L71.8792 52.0949L71.848 52.6811L71.7299 52.2232L71.6118 51.7688H70.8615V54.4327L71.4138 54.287L71.9661 54.1413L71.8445 55.5669L71.7264 56.996L72.0251 56.8781L72.3273 56.7671L72.105 58.2724H73.4667V57.7521H74.3073L74.1857 57.2874L74.0676 56.826L74.6373 56.3057L75.0958 56.3994L75.5508 56.4896V55.671H76.8534V55.1507H78.156V54.3703H78.9376V53.5898H79.4586V51.7688H80.7612V47.8666H80.2402V45.005H79.6809L79.3092 44.6339L78.9376 44.2628V42.4036H78.3783L78.0066 42.0325L77.635 41.6613V41.1029H76.8534V40.3224H76.0719V39.8022H74.936L73.682 38.4355L72.4315 37.0724V36.4758L72.039 36.3266L71.65 36.1775V35.3797H71.1289V34.5993H70.6287L70.0729 32.3898L69.8194 31.9354L69.5658 31.4845V29.9167H68.7773V27.8355H68.2563V22.6326H67.4747V21.8522H68.2563V19.771H68.7773V16.9094H69.2983V16.129H70.0799V14.5681H70.8615V13.7877H71.643V13.094L72.9456 11.873V11.4117L73.3173 11.0371L73.689 10.6659H74.2482V10.111L74.6199 9.73635L74.9916 9.36521H75.3389L75.7106 8.99407L76.0823 8.62293V7.80434H76.8638V7.28405H78.1664V6.76376H79.9623L79.8129 6.37528L79.6636 5.98333H80.7612V5.46304H82.4702L83.6756 4.62017H90.2754L93.4017 5.22718L95.3573 6.06311L95.4372 7.5442L95.4858 8.19283L92.9154 8.24139L92.6514 8.82411L92.3908 9.4103L91.6961 9.30625L91.0014 9.20219L91.1265 9.52824L91.2515 9.85082L91.9462 9.83H92.6409L93.4677 10.0138L94.2909 10.1942L94.4507 10.6139L94.6139 11.0301L94.1311 11.5123L93.0682 10.9434H91.7031V11.4082L90.8555 11.7343L90.2303 11.2174L89.6467 11.7932L90.4283 12.5216L91.2098 13.25L91.783 13.4443L92.3526 13.6385L92.957 13.746L93.4364 14.0478L93.9158 14.3496L93.162 14.1831L92.4152 14.0235L92.5367 14.8491L92.6583 15.6781L92.1963 15.7995L91.7309 15.9209L91.585 16.3024L91.4391 16.684L89.6884 16.6493L87.9273 16.6146H87.6042L87.2777 16.6354V17.1557H88.4136L90.1921 17.728L91.9671 18.3003V18.6749L93.5302 19.0218V19.5005H94.277L94.607 20.541H95.0238L95.6421 22.7505L95.722 25.352L95.5136 25.9624L95.3052 26.5695L95.8505 26.2781L96.3959 25.9867V22.088L95.9686 21.2521L95.5414 20.4231L94.798 19.5664L94.0477 18.7304V18.0367L94.4125 17.8945L94.7807 17.7558L95.2461 18.2205L95.6977 18.72L96.2292 18.3732L96.0624 18.6437L95.8922 18.9143L96.2952 19.2611L96.6981 19.608L96.9829 18.5188L97.827 18.1928L98.1744 18.6611L98.5217 19.1293L99.4909 21.3423H100.554V23.2674L101.158 22.6638L101.183 21.873L101.203 21.0821H100.814V19.001H102.204L101.804 18.5466L101.401 18.0887L100.842 16.9788L100.283 15.8688L100.682 15.7162L101.082 15.5636V15.0052V14.4467L101.825 15.4873L102.103 15.8099L102.377 16.1324L103.458 17.9604H104.017L105.094 18.8726L104.399 17.9604H104.986V16.3406L104.538 15.5844L104.09 14.8283H103.687V14.0478H103.235L102.933 13.3853L102.631 12.7228V12.487H104.392L104.559 12.9413L104.722 13.3957L105.069 13.9819L105.417 14.5646L105.813 15.0225L106.216 15.4769L106.546 16.5175L106.872 17.558L107.8 19.6392L108.067 20.5514L108.338 21.4637L108.515 22.7193L108.692 23.9784L107.793 30.045L107.414 31.0856L105.914 34.2073L104.066 37.0724L103.677 37.2458V38.2413H103.482H103.284L102.242 39.1501L101.2 40.0588L100.29 40.3467V40.8323H99.272L99.0636 41.1584L98.8552 41.481L98.2647 41.8278L97.6707 42.1747L96.5036 42.3308L95.3399 42.4903V43.184L94.8119 43.3505L94.284 43.517L93.5093 43.3471L92.7347 43.1771V43.7043H89.348V45.7855H88.8269V47.0862H89.348V49.6877H88.8269V50.9884H88.0558V52.2891H87.5347V53.5898H86.7532V55.1507H86.2321V55.8444L85.7458 56.4063L85.2595 56.9648H84.148V55.671H84.9295V53.5898H84.148V53.0695H86.2321V51.7688H86.7532V49.1674H86.2321V47.8666H85.4506V47.0862H84.9295V45.7855H84.148V44.4848H83.3664V43.184H82.8454V43.7043H82.0638V44.4848H82.8454V46.3058H82.0638V47.8666H82.8454V49.1223L83.4949 49.4275L82.8454 49.7327V50.9884H82.0638V52.2891H81.5428V55.1125L81.9978 55.2305L82.4529 55.3484L81.4768 55.3796L80.5007 55.4108V55.9311H79.7191V56.7116H78.4165V57.2319H77.1139V58.0123H76.3324V58.5326H75.0298V59.8333H74.5087V60.6137H73.7272V61.9145H73.2061V65.2408L73.6195 65.3969L74.0294 65.5565H75.2903V64.7761H75.8113V64.2211L76.183 63.8465L76.5547 63.4753H76.8534V64.2558H77.6906L77.5447 63.8777L77.4022 63.5031L77.7774 63.6453L78.156 63.791V62.955H78.7118L79.0869 62.5839L79.4586 62.2128V61.6543H78.9376V62.4348H78.156V62.955H77.3745V62.1746H77.9302L78.3054 61.8035L78.6771 61.4323V60.8739H79.2328L79.608 60.5027L79.9797 60.1316V59.5732H80.7612V59.0182L81.1329 58.6436L81.5046 58.2724H82.8454V58.8621L83.3803 59.3234L83.9118 59.7882L83.3629 60.1351L83.5227 60.7698L83.6825 61.4046H83.1059L82.0638 62.4452V63.2429L81.6887 63.3851L81.3135 63.5274L81.1572 64.2211L81.0044 64.9148L80.2332 65.5565L79.4586 66.1947V67.0133L77.6315 67.8839L77.6628 68.0816L77.6975 68.2828L77.635 68.9314H76.8534V69.7188H76.0719V70.2391H74.7693V71.5398H74.2482V72.3203H73.689L73.3173 72.6914L72.9456 73.066V73.621H72.1641V74.4014H70.8615V74.9217H70.0799V74.4014H68.7773V73.621H67.4747V73.066L67.11 72.6914L66.7383 72.3203H66.1721V71.5398H65.6511V74.4014H66.1721V77.5231H66.9537V78.8239H67.4747V80.3847H68.2563V82.9862H68.7773V86.8884H69.5589V88.9695H70.0799V93.6521H70.8615V104.838H70.0799V108.22H69.5589V110.822H68.7773V113.423H68.2563V115.504H67.4747V117.325H66.9537V118.886H66.1721V120.707H65.6511V121.488H64.8695V123.309H64.0879V124.87H63.5669V126.17H62.7853V127.991H62.2643V129.292H60.9617V130.593H60.1801V131.373H59.6591V132.154H58.8775V133.454H58.3565V134.755H57.5749V136.576H56.7934V139.216L56.4217 139.587L56.0465 139.958H55.5081ZM43.9167 145.941H42.9858V145.421H42.2042V138.657H42.9858V137.356H43.5068V135.275H46.3726V142.039H45.591V145.199L45.2263 145.57L44.8511 145.941H43.9167ZM50.1484 15.3485H50.8014V14.5681H49.4988V15.3485H50.1484ZM55.1643 22.3412L56.0118 22.3725V19.771H56.7934V18.4703H60.1801V15.8688H60.9617V14.5681H62.7853V15.3485H64.0879V14.5681H63.5669V13.7877H63.0076L62.636 13.4165L62.2643 13.0454V12.487H61.4827V10.6659H59.6591V11.1862H56.2723V10.6659H55.4908V12.487H54.9697V13.2674H54.4105L54.0388 13.6385L53.6671 14.0131V14.5681H52.8856V15.3139L53.6671 16.0943V16.4412L54.0388 16.8123L54.4105 17.1834H54.9697V18.6125L55.133 20.3468L55.2963 22.0811L54.8065 22.2094L54.3132 22.3308L55.1643 22.3412ZM34.6492 23.1529H34.9097V21.0717H35.6912V19.2507H36.2123V18.4703H37.5149V15.8688H33.6071V16.6493H32.3045V15.8688H31.5229V14.5681H31.0019V12.487H30.262L29.9598 11.8349L29.6541 12.487H28.3967V13.2674H27.6151V12.7124L27.2435 12.3378L26.8683 11.9667H24.2284V12.487H22.9258V13.2223L22.2727 13.5275L22.9258 13.8328V14.5681H23.7073V16.6493H22.9258V17.95H23.6622L23.9678 18.5986L24.27 17.95H25.0099V16.6493H25.7915V15.8688H27.6151V16.6493H28.1709L28.553 17.0204L28.9247 17.395V18.4703H28.4036V20.5514H28.9247V19.771H29.4804L29.8556 19.3999L30.2273 19.0287V18.4703H33.093V19.2507H33.614V21.0717H33.093V22.6326H34.3956V23.1529H34.6492ZM19.6675 37.4609H20.8416V35.6572L21.2306 35.8063L21.6232 35.9555V35.064L21.2098 35.2201L20.7999 35.3797H18.4969V37.4609H19.6675ZM10.0283 38.2413H11.4629V37.4609H11.9839V36.7845L11.6748 36.1289L11.3656 35.4768L10.7091 35.1681L10.0561 34.8594H9.36135V34.079H7.87813L7.22856 34.8594H4.68936V36.1601H5.2104V36.9406H6.77352V37.4609H8.59716V38.2413H10.0283ZM54.143 99.3718H54.3236L54.9107 99.2158L55.4977 99.0562V96.7739H56.0327L55.5985 95.9275L55.1643 95.0812L55.6783 95.539L56.189 95.9934H56.717L57.1824 96.5033L57.6444 97.0132L59.468 97.6167L59.666 97.2942L59.864 96.9716L60.1384 97.4572L60.4129 97.9463L60.597 97.4606L60.7845 96.982L60.5205 96.812L60.26 96.6421L60.0655 95.3448L59.8745 94.0476L59.5028 93.3295L59.1207 92.6115H58.551L58.69 92.0913L58.8254 91.571H58.3912L57.6097 92.3514H56.7934V93.6521H54.9524L53.7436 92.3514H53.1739L52.6389 91.7791L52.104 91.2033H51.3885H50.6764L50.5131 90.0552L49.8635 90.3049L49.2105 90.5512H46.64V91.3316H45.8515V91.5675L46.1329 92.8786L46.4143 94.1932H46.8554L46.9422 94.7794L47.0221 95.3656L48.0017 95.4454L48.9778 95.5252V94.2557L49.3043 93.999L49.6273 93.7423L50.8674 93.607L52.104 93.4752V93.9816L51.583 94.1169L51.0619 94.2557V95.4939H50.2144L50.3672 96.257L50.5201 97.0201L50.9855 98.0156L51.4544 99.0076L52.0519 99.0909L52.6528 99.1741L53.0558 98.8446L53.4552 98.4978L53.952 99.3822L54.143 99.3718ZM58.624 184.443H58.8845V183.922H58.3634V184.443H58.624ZM58.4051 189.33L46.119 189.403V186.524H45.0769V185.743H42.9928V185.223H31.0088V185.743H20.3206V186.298L19.9489 186.673L19.5737 187.044H16.9338V187.825H12.2444V188.345H9.1182V187.825H8.33664V185.223H13.8076V183.142H15.6312V182.361H14.3286V180.929L17.2499 181.113L18.3962 180.939L19.5425 180.769V178.761L19.7023 178.352L19.869 177.939H21.116V177.159H25.0099V174.557H25.7915V174.002L26.1632 173.628L26.5348 173.256H27.0941V172.701L27.4658 172.327L27.8374 171.956H28.3967V171.401L28.7684 171.026L29.14 170.655H29.6993V169.094H30.2203V167.793H30.7761L31.1513 167.422L31.5229 167.048V165.972H32.3045V159.989H31.5229V155.306H32.3045V150.624H31.5229V144.641H31.0019V138.657H31.5229V135.275H32.3045V132.674H33.086V131.373H33.6071V127.471H33.086V123.309H32.3045V120.707H31.5229V119.406H31.0019V116.805H30.2203V114.724H29.6993V112.122H28.9177V109.521H28.3967V106.92H27.6151V102.237H27.0941V91.571H27.6151V86.8884H28.3967V85.5876H28.9177V84.2869H29.6993V80.3847H30.2203V78.3036H29.6993V77.5231H27.6151V77.0029H26.3125V74.9217H25.7915V73.621H25.0099V71.5398H24.2284V68.9384H23.7073V62.4348H22.9258V49.1674H19.7995V49.6877H19.018V50.4681H15.1102V49.6877H14.3286V50.9884H13.8076V51.7688H13.026V52.2891H12.2444V52.8475L11.8797 53.2187L11.4976 53.5898H10.4208V54.3703H9.1182V53.5898H8.55895L8.18728 53.2187L7.8156 52.8475V50.4681H8.33664V49.6877H7.8156V48.3869H8.33664V47.8666H3.64728V47.0862H3.12624V43.7043H2.56699L2.19532 43.3332L1.82364 42.962V39.8022H1.04208V38.5014H0.52104V37.2007H0V33.8188H0.52104V33.0384H3.12624V32.5181H9.1182V33.0384H10.9418V33.8188H11.7234V34.5993H12.2444V35.9H13.8076V36.9787L14.1792 37.3499L14.5509 37.721H16.4128V36.4203H16.9338V34.5993H17.7154V33.8188H20.3206V34.5993H21.1021V33.8188H20.3206V32.5181H21.1021V31.2174H20.3206V30.6624L19.9489 30.2878L19.5737 29.9167H17.7154V29.1362H16.9338V27.0551H14.3286V25.7543H13.8076V26.5348H10.9418V25.9798L10.5702 25.6052L10.195 25.234H9.63924V23.1529H7.8156V22.6326H7.03404V17.1696H7.58982L7.96497 16.7984L8.33664 16.4273V14.5681H9.1182V13.2674H9.63924V11.9667H10.4208V10.6659H10.9418V9.8855H11.7234V9.36521H13.7624L14.0681 10.0173L14.3703 9.36521H15.1102V8.58478H17.7154V9.36521H18.2364V11.1862H17.7154V15.3485H19.018V14.5681H20.3206V13.7877H19.7995V10.6659H20.3206V9.36521H19.7995V8.58478H17.7154V7.80434H16.4128V7.28405H15.1102V6.50362H14.3286V5.2029H14.8844L15.2595 4.83176L15.6312 4.46062V3.90217H16.187L16.5621 3.53103L16.9338 3.15989V2.60145H17.7154V2.04647L18.087 1.67186L18.4587 1.30072H19.7995V0.745749L20.1712 0.37114L20.5429 0H22.1789L22.5541 0.37114L22.9258 0.745749V1.30072H25.0099V1.82101H25.7915V2.60145H26.3125V3.38188H26.8683L27.2435 3.75302L27.6151 4.12763V4.68261H28.3967V5.76134L28.7684 6.13248L29.14 6.50362H29.6993V7.06206L30.071 7.4332L30.4426 7.80434H31.0019V9.36521H32.3045V9.8855H33.086V11.1862H33.6071V13.2674H34.9097V12.487H38.2964V11.9667H39.078V11.4117L39.4497 11.0371L39.8214 10.6659H40.3806V8.58478H40.9016V7.80434H42.2042V7.28405H43.5068V6.50362H44.2884V5.98333H45.591V5.2029H46.3726V4.68261H48.1962V3.90217H55.4908V4.68261H58.1307L58.5059 5.05375L58.8775 5.42836V5.98333H59.6591V7.28405H60.9617V6.50362H63.5669V7.06206L63.9386 7.4332L64.3102 7.80434H64.8695V10.6659H65.4253L65.8004 11.0371L66.1721 11.4117V11.9667H67.4747V13.2674H68.2563V15.8688H67.4747V19.2507H66.9537V20.5514H66.1721V22.6326H63.5669V23.1529H63.0076L62.636 22.7817L62.2643 22.4106V21.8522H61.4827V22.4106L61.1111 22.7817L60.7359 23.1529H60.1801V23.9333H59.6591V25.234H58.8775V26.3128L58.5059 26.6839L58.1307 27.0551H57.5749V27.8355H56.2723V28.6159H54.9697V29.1362H53.6671V29.9167H52.8856V29.1362H51.6385L51.4892 28.7477L51.3398 28.3558H52.6251V27.5753H54.0145L53.4518 27.0897L52.8925 26.6041V25.9798L52.5208 25.6052L52.1457 25.234H51.3294V24.1935H52.6146L52.962 21.592L53.5143 21.5677L54.0666 21.5435L52.375 21.0579V20.5514H50.2908V19.771H49.4988V19.2507H48.1962V15.8688H48.9778V15.3485H48.4185L48.0468 15.7197L47.6752 16.0943V16.6493H46.3726V20.5514H45.591V24.4536H45.07V27.0551H44.2884V27.8355H43.5068V29.6947L43.1421 30.0658L42.767 30.4369H42.2112V31.7377H41.6902V32.5181H41.1309L40.7592 32.8892L40.3876 33.2638V33.8188H39.599V34.5993H38.2964V35.1195H37.5149V35.678L37.1432 36.0491L36.7681 36.4203H35.6912V37.2007H33.6071V37.721H32.3045V38.5014H31.0019V39.8022H30.2203V41.8382L29.5673 42.1435L30.2203 42.4487V43.184H29.6993V45.005H28.3967V45.7855H27.8374L27.4658 46.1566L27.0941 46.5312V47.0862H26.3125V48.3869H27.0941V49.6877H26.3125V55.1507H27.0941V56.4514H26.3125V57.7521H27.0941V67.1174H27.6151V70.2391H28.3967V72.3203H28.9177V73.621H31.0019V74.1794L31.3736 74.5506L31.7452 74.9217H33.6071V75.7021H35.4655L35.8406 76.0733L36.2123 76.4444V77.5405L36.7542 77.2526L37.296 76.9612L37.6017 77.3254L37.9039 77.6723L40.9016 77.4607V77.0029H41.6832V77.5231H46.8936V78.3036H48.1962V78.8239H50.8014V79.6043H51.583V83.5169L52.5174 84.4222L53.4518 85.3275H54.4938L54.4035 87.3427L54.3132 89.358L55.0323 89.4412L55.7478 89.5245V87.9289H56.5294V87.1485H56.9844L57.1442 87.9428L57.304 88.7406L57.6965 89.1291L58.0856 89.521L58.8706 89.0597L59.6556 88.5984V88.1891H59.2041L58.9123 86.0316L59.6695 85.2755L60.0516 85.5946L60.4372 85.9102V87.1485H61.1041L61.58 87.7035L62.0524 88.2585L61.7363 91.7028L61.5835 93.0659L61.4272 94.4326H62.3094L62.2226 96.8814L62.1288 99.3337L61.8996 99.5487L61.6842 99.7638L58.3426 99.7152V100.936H57.561V102.237H56.7934V102.757H55.4908V104.058H54.9697V104.838H54.1882V106.139H53.6671V107.44H52.8856V108.22H52.3645V109.521H50.2804V110.041H48.1962V104.12L47.8489 103.826L47.5015 103.531L47.3452 102.324L47.2097 101.127L46.8867 100.926L46.5636 100.725L46.7477 99.7534L46.9283 98.7787L46.5219 98.9348L46.112 99.0909V97.8144H45.3305V97.034H44.7851L43.4895 95.7333H42.2042V94.9528H42.9858V93.2636L43.1456 92.6775L43.2984 92.0913H42.694L42.0549 91.3975L41.4157 90.7038V88.3799L42.3918 88.5394L43.3679 88.6955L43.6527 89.084L43.9341 89.469L44.6288 89.7395L45.3409 90.0101H46.6088V87.7312L47.7829 87.4156H49.214V86.4999L50.3359 86.5901L51.4579 86.6802L51.312 85.4211L51.1696 84.162L49.9295 84.0823L48.6929 84.0025V84.8141H48.3942L47.6509 84.0719V83.5134H46.3726V82.9931H45.591V82.2058H45.07V80.905H42.2668L39.2378 82.726H38.8036L38.6542 82.3376L38.5049 81.9491L37.3273 82.2439L36.98 81.3698L36.5666 81.5294L36.1567 81.6855L35.8545 81.4982L35.5523 81.3143L33.5967 81.2137V82.2058H33.0756V85.5876H32.3045V87.6688H31.5229V91.571H31.0019V98.0746H30.2203V98.855H31.0019V102.237H31.5229V108.22H32.3045V109.521H33.086V113.982L33.8294 114.724H34.3886V117.325H34.9097V118.886H35.6912V120.707H36.2123V124.089H36.9938V126.691H37.5149V132.674H36.9938V133.975H36.2123V135.275H35.6912V139.438H34.9097V145.941H35.6912V152.705H36.2123V154.006H35.6912V158.688H36.2123V161.248L35.5592 161.508L36.1949 161.949L36.3582 167.467L35.7086 167.218V167.793H34.9097V168.574H34.3886V169.875H33.6071V171.175H33.027L33.1416 171.956L33.2563 172.736H31.7834V173.517H31.2624V174.817H30.5677L29.9633 176.142V176.898H29.1782V178.199H30.7414V177.679H31.7834V178.199H34.6492V174.817L35.0382 174.668L35.4307 174.519V173.756L36.2262 172.962L36.8723 173.121L37.5149 173.284V172.493H38.3624L38.0359 170.461L39.1614 170.752L38.8765 169.67L39.2239 169.809L39.5713 169.947V169.094H40.3528V168.574H43.2185V175.272L43.5451 176.898H47.8871L48.4289 177.904V178.98H49.742L49.5787 179.41L49.4085 179.843L49.9122 179.711L50.4089 179.58L50.3186 180.71L50.2283 181.841H51.583V182.361H52.8856V181.841H54.1882V181.283L53.8165 180.912L53.4413 180.54H52.9446L52.632 179.368V177.634L51.8782 176.898H51.319V176.118H50.0164V175.338H49.2522L49.4224 174.901L49.5891 174.467L49.2001 174.613L48.8145 174.762L48.9257 174.009L49.0368 173.256H48.1927V171.956H47.6578V170.655H46.8762V163.111H47.6578V159.989H48.1788V159.209H47.6578V157.388H48.1788V154.006H48.9604V151.925H49.4814V149.843H50.263V148.543H51.5656V146.722H52.3472V144.641H52.8682V143.34H53.6498V142.559H54.1708V143.34H54.9524V147.242H54.1708V150.624H53.6498V151.925H52.8682V154.526H52.3472V163.111H51.5656V169.875H52.3472V170.655H52.8682V173.256H53.6498V174.557H54.1708V175.858H54.9524V176.413L55.6992 177.159H56.255V177.714L57.0018 178.459H57.5576V179.24H58.3391V179.76H59.6417V180.54H60.1628V179.76H64.8521V180.54H67.4573V183.073L69.6631 183.367L69.7534 183.645L69.8472 183.922H70.8441V185.743H77.6176V189.385H72.6677V188.605H70.8892L70.7816 188.931L70.6739 189.254L58.4051 189.33Z" fill="#979797"/>
</svg>
